<svg id="Final_Artboards" data-name="Final Artboards" xmlns="http://www.w3.org/2000/svg" viewBox="0 0 496.06 198.43"><defs><style>.cls-1{fill:#fff;}.cls-2{font-size:82px;fill:#231f20;font-family:Optima-Regular, Optima;letter-spacing:-0.05em;}.cls-3{letter-spacing:-0.04em;}.cls-4{letter-spacing:-0.01em;}.cls-5{letter-spacing:-0.04em;}.cls-6{letter-spacing:-0.07em;}.cls-7{letter-spacing:-0.05em;}.cls-8{letter-spacing:-0.03em;}.cls-9{letter-spacing:-0.03em;}.cls-10{letter-spacing:-0.01em;}</style></defs><title>ENTA logo solid tragus big text</title><g id="White_on_transparent" data-name="White on transparent"><path class="cls-1" d="M203.37,175.65a6.68,6.68,0,0,1-1,.17,15.16,15.16,0,0,1-5.66-1c-6.34-2.27-11.27-6.45-15.45-11.61a36.52,36.52,0,0,1-4.7-8c-.23-.5-.43-.71-1.05-.6-1.57.27-3.16.47-4.76.62-.57.06-.75.23-.78.81a54.39,54.39,0,0,0,.41,10,31.2,31.2,0,0,0,4.48,12.78c2.42,3.74,5.49,6.84,9.78,8.3,7.88,2.67,15.34,1.42,22.33-2.95a40,40,0,0,0,12-12.27c4.63-7,9.05-14.16,13.5-21.29A119.23,119.23,0,0,1,244,134.49c4.18-4.71,8.28-9.51,12.21-14.43a93.53,93.53,0,0,0,13-21.66,64,64,0,0,0,5.3-22.89,60.9,60.9,0,0,0-7-31.34,58.54,58.54,0,0,0-69.3-28.84,45.7,45.7,0,0,0-24.86,18,42.22,42.22,0,0,0-7.61,23.2,24,24,0,0,0,.79,7.72,44.72,44.72,0,0,0,3.63,8.3,63.61,63.61,0,0,0,10.68,14,97.84,97.84,0,0,0,16.25,13.15c2.87,1.91,5.78,3.8,8,6.53a14.63,14.63,0,0,1,3.56,11.41c-.12.9-.4,1.78-.6,2.66l.08.05,1.47-.56a65.53,65.53,0,0,0,13.67-7.11,1.24,1.24,0,0,0,.57-1.32,13,13,0,0,0-5.9-9.83c-2.36-1.58-4.88-2.94-7.37-4.31a122.86,122.86,0,0,1-14.85-9,50.46,50.46,0,0,1-14-15.14c-5.3-9.25-5.77-18.75-1.13-28.36a34.81,34.81,0,0,1,18.93-17.53,33.43,33.43,0,0,1,18.56-1.87,53.28,53.28,0,0,1,14.53,4.87A52.39,52.39,0,0,1,253.27,47.6c5.79,8.45,8.34,17.92,8.56,28.08a60.67,60.67,0,0,1-3.08,20,82.2,82.2,0,0,1-10.4,21,34.59,34.59,0,0,1-6.34,7.17,9.36,9.36,0,0,1-5.78,2.35c-1.17.06-2.34.21-3.51.34a6.27,6.27,0,0,0-3.5,2.1l14.8-.42c-.56.43-1.12.84-1.66,1.27a15.83,15.83,0,0,1-6.09,3c-3.42.89-6.9.7-10.37.49a3.6,3.6,0,0,0-2.63.52c-.73.56-1.55,1-2.5,1.6l17.85,1,.22.22a5.19,5.19,0,0,0-.66.35,16.06,16.06,0,0,1-5,2.68,27.59,27.59,0,0,1-17.05-.22,1.35,1.35,0,0,0-1.25.14c-1.06.66-2.14,1.29-3.21,1.94a2.19,2.19,0,0,0-.37.28c2.07.55,4.14,1,6.16,1.67A64.36,64.36,0,0,0,230.4,146a5.18,5.18,0,0,1,1,.41,8,8,0,0,1-.93.75,15.77,15.77,0,0,1-6.6,2.08,34,34,0,0,1-18.58-3.74,1.62,1.62,0,0,0-1.54-.07c-1.85.82-3.72,1.6-5.58,2.39a.38.38,0,0,0-.13.13c.59.1,1.19.15,1.76.3a55.92,55.92,0,0,1,10,3.77,77.32,77.32,0,0,0,12.41,5.07,1.55,1.55,0,0,1,.7.41c.29.3.3.57-.18.79a20,20,0,0,1-7.69,1.78,32.68,32.68,0,0,1-11.93-2.32,44,44,0,0,1-11.47-6.29,1.35,1.35,0,0,0-1.31-.23c-1.86.5-3.73.95-5.6,1.42l-.79.2a33.41,33.41,0,0,1,6.37,6.06c3.49,4.35,6.85,8.8,10.26,13.21C201.51,173.26,202.4,174.39,203.37,175.65Zm33.28-53.78c1.06-.34,1.55-.72,2.78-2.16a68.9,68.9,0,0,0,12.32-21.49,67.14,67.14,0,0,0,4.19-20.49,44.58,44.58,0,0,0-3.11-18.35A41.74,41.74,0,0,0,237,39.63c-6.59-4.39-13.61-7.74-21.55-8.76a26.55,26.55,0,0,0-14.4,2,29.75,29.75,0,0,0-15.62,16A22.13,22.13,0,0,0,186,68.62a43.14,43.14,0,0,0,11.25,13.51,99.83,99.83,0,0,0,14.49,9.45c3.5,2,7,4,10.35,6.2a15.17,15.17,0,0,1,6.5,9.58c.07.34.12.7.19,1.14l.65-.58a36.39,36.39,0,0,0,7.33-9.9A37.07,37.07,0,0,0,241,86.67a29.6,29.6,0,0,0-5.4-23c-4-5.59-9.25-9.45-16.35-10a14.6,14.6,0,0,0-13.5,5.84,10.68,10.68,0,0,0,2.17,15.35,7.78,7.78,0,0,0,11.19-2c1.81-3,.35-6.8-2.86-7.38a3.37,3.37,0,0,0-3.49,1.22,2.22,2.22,0,0,0,.12,2.84,1.56,1.56,0,0,0,2.32.31.68.68,0,0,1,.26,0,2.12,2.12,0,0,1-1.24,2.3,3.67,3.67,0,0,1-3.89-.52,5.19,5.19,0,0,1-1.36-6.79,8.4,8.4,0,0,1,4-3.33,7.82,7.82,0,0,1,7.3.05c5.76,2.89,7.38,9.37,4.23,15.07-3.62,6.57-11.48,8.08-17.22,6.15a16.66,16.66,0,0,1-10.09-9.47,18.83,18.83,0,0,1-1-11.55A16.92,16.92,0,0,1,201.52,52a23.38,23.38,0,0,1,18.34-6,26.49,26.49,0,0,1,17.39,8.5,41.24,41.24,0,0,1,10.34,21.77,66.9,66.9,0,0,1,.12,21.37A47.64,47.64,0,0,1,244.27,110,49.16,49.16,0,0,1,236.65,121.87Zm-33.28-6a19.78,19.78,0,0,0-.71-3,13.41,13.41,0,0,0-5.34-6.31c-3.46-2.36-7-4.66-10.38-7.12a2.8,2.8,0,0,0-2.61-.4,3.38,3.38,0,0,0-2.67,2.17c-.33,1-.48,2.08-.73,3.12a1.25,1.25,0,0,0,.59,1.47c4.45,3.26,4.67,9.07,3.35,12.74a15.62,15.62,0,0,1-5.81,7.27,12.08,12.08,0,0,0-5.1,9.43c-.15,2.43.64,4.25,2.78,5.06a.77.77,0,0,0,1-.23c.63-.74,1.29-1.46,2-2.15,3.2-3.17,6.65-6,11-7.52a25.9,25.9,0,0,0,6.51-3.35A13.72,13.72,0,0,0,203.37,115.87Zm39.56-15.09-.21,0c-.11.81-.15,1.64-.34,2.44a33.38,33.38,0,0,1-6.65,13.3,57.92,57.92,0,0,1-13,11.7A91,91,0,0,1,203.2,138a120.36,120.36,0,0,1-21.41,5.72c-2.81.49-5.65.74-8.48,1.13-.27,0-.68.2-.75.41-.78,2.24-1.49,4.5-2.25,6.84.37,0,.57,0,.76,0,2-.25,3.93-.42,5.87-.77a107.37,107.37,0,0,0,28.33-9.08A108.69,108.69,0,0,0,226,129.1a74.39,74.39,0,0,0,9.72-9.88,28,28,0,0,0,6.54-13C242.6,104.39,242.72,102.57,242.93,100.78Zm-58.85-3.59a102.3,102.3,0,0,1-13.54-13.68,38.47,38.47,0,0,0,1.26,11.65,13.31,13.31,0,0,0,5.89,8.1,15.2,15.2,0,0,0,1.39.68C179,100.39,180.15,97.84,184.08,97.19Zm24.71,27.2c-1.82.55-3.69.52-4.48,2.45,0,0-.07.07-.1.11a26.36,26.36,0,0,1-14.86,8.84c-1.87.39-4.72,3-5.32,4.92a5.74,5.74,0,0,1,.66-.16,108.11,108.11,0,0,0,14.92-3.62c.77-.24,1.48-.45,1.67-1.41a3.19,3.19,0,0,1,.63-1.09c1.73-2.55,3.47-5.08,5.21-7.62C207.63,126.06,208.15,125.31,208.79,124.39Zm-4.53,10.81.17.13,1-.4L213,131.8a2.41,2.41,0,0,0,1.56-1.63c.59-1.88,1.44-3.67,2.19-5.5.55-1.35,1.11-2.69,1.72-4.14a4,4,0,0,0-.48.18c-1.84.83-3.69,1.66-5.52,2.53a1.92,1.92,0,0,0-.77.67Q208,129.54,204.26,135.2ZM217,129.76a2,2,0,0,0,.41-.09c2.37-1.47,4.75-2.94,7.11-4.45a1.16,1.16,0,0,0,.39-.8c.07-2.43.11-4.85.15-7.27,0-.23,0-.46-.07-.79-1.13.82-2.16,1.52-3.14,2.29a3,3,0,0,0-.92,1.11c-1.11,2.64-2.18,5.31-3.25,8C217.41,128.35,217.23,129,217,129.76ZM230,112c-1,.87-1.94,1.65-2.81,2.5a1.72,1.72,0,0,0-.47,1.09c-.06,1.27,0,2.55,0,3.82v3.92l.26.12c1.47-1.34,2.94-2.67,4.39-4a.76.76,0,0,0,.19-.61C231,116.59,230.51,114.34,230,112Zm3,6c.9-1,1.66-1.8,2.39-2.65a.77.77,0,0,0,.05-.62c-.67-2.06-1.35-4.11-2.05-6.2-.57.61-1.1,1.23-1.69,1.79a1.41,1.41,0,0,0-.41,1.49c.23.9.4,1.81.64,2.7C232.23,115.6,232.6,116.7,233,118Zm3.42-4.45.31,0c.7-1.17,1.4-2.33,2.06-3.53.09-.15,0-.46-.14-.66-.25-.45-.62-.85-.83-1.33-.5-1.12-.94-2.28-1.42-3.46a5.52,5.52,0,0,1-.49.65c-1.58,1.39-1.58,3-.78,4.8C235.62,111.17,236,112.36,236.41,113.53Zm4.41-8.45c1.34-3,1.52-9.29,1-11.16,0,0-.1,0-.12.07-.78,1.89-1.57,3.77-2.34,5.66a.83.83,0,0,0,0,.62A11.31,11.31,0,0,1,240.82,105.08Zm-1.53,3.85c.75-1.42,1.69-2.83,1.13-4.55-.41-1.29-1-2.52-1.54-3.92A8.93,8.93,0,0,1,238,102c-1.06,1.17-.9,2.3-.13,3.54a17,17,0,0,0,1,2A1.55,1.55,0,0,1,239.29,108.93Z"/><path d="M203.37,175.65c-1-1.26-1.86-2.39-2.74-3.54-3.41-4.41-6.77-8.86-10.26-13.21a33.41,33.41,0,0,0-6.37-6.06l.79-.2c1.87-.47,3.74-.92,5.6-1.42a1.35,1.35,0,0,1,1.31.23,44,44,0,0,0,11.47,6.29,32.68,32.68,0,0,0,11.93,2.32,20,20,0,0,0,7.69-1.78c.48-.22.47-.49.18-.79a1.55,1.55,0,0,0-.7-.41A77.32,77.32,0,0,1,209.86,152a55.92,55.92,0,0,0-10-3.77c-.57-.15-1.17-.2-1.76-.3a.38.38,0,0,1,.13-.13c1.86-.79,3.73-1.57,5.58-2.39a1.62,1.62,0,0,1,1.54.07,34,34,0,0,0,18.58,3.74,15.77,15.77,0,0,0,6.6-2.08,8,8,0,0,0,.93-.75,5.18,5.18,0,0,0-1-.41,64.36,64.36,0,0,1-12.93-2.91c-2-.65-4.09-1.12-6.16-1.67a2.19,2.19,0,0,1,.37-.28c1.07-.65,2.15-1.28,3.21-1.94a1.35,1.35,0,0,1,1.25-.14,27.59,27.59,0,0,0,17.05.22,16.06,16.06,0,0,0,5-2.68,5.19,5.19,0,0,1,.66-.35l-.22-.22-17.85-1c.95-.6,1.77-1,2.5-1.6a3.6,3.6,0,0,1,2.63-.52c3.47.21,6.95.4,10.37-.49a15.83,15.83,0,0,0,6.09-3c.54-.43,1.1-.84,1.66-1.27l-14.8.42a6.27,6.27,0,0,1,3.5-2.1c1.17-.13,2.34-.28,3.51-.34a9.36,9.36,0,0,0,5.78-2.35,34.59,34.59,0,0,0,6.34-7.17,82.2,82.2,0,0,0,10.4-21,60.67,60.67,0,0,0,3.08-20c-.22-10.16-2.77-19.63-8.56-28.08a52.39,52.39,0,0,0-20.64-17.41,53.28,53.28,0,0,0-14.53-4.87,33.43,33.43,0,0,0-18.56,1.87,34.81,34.81,0,0,0-18.93,17.53c-4.64,9.61-4.17,19.11,1.13,28.36a50.46,50.46,0,0,0,14,15.14,122.86,122.86,0,0,0,14.85,9c2.49,1.37,5,2.73,7.37,4.31a13,13,0,0,1,5.9,9.83,1.24,1.24,0,0,1-.57,1.32,65.53,65.53,0,0,1-13.67,7.11l-1.47.56-.08-.05c.2-.88.48-1.76.6-2.66a14.63,14.63,0,0,0-3.56-11.41c-2.2-2.73-5.11-4.62-8-6.53A97.84,97.84,0,0,1,180.91,86.6a63.61,63.61,0,0,1-10.68-14,44.72,44.72,0,0,1-3.63-8.3,24,24,0,0,1-.79-7.72,42.22,42.22,0,0,1,7.61-23.2,45.7,45.7,0,0,1,24.86-18,58.51,58.51,0,0,1,69.3,28.84,60.9,60.9,0,0,1,7,31.34,64,64,0,0,1-5.3,22.89,93.53,93.53,0,0,1-13,21.66c-3.93,4.92-8,9.72-12.21,14.43a119.23,119.23,0,0,0-11.54,16.07c-4.45,7.13-8.87,14.27-13.5,21.29a40,40,0,0,1-12,12.27c-7,4.37-14.45,5.62-22.33,2.95-4.29-1.46-7.36-4.56-9.78-8.3A31.2,31.2,0,0,1,170.43,166a54.39,54.39,0,0,1-.41-10c0-.58.21-.75.78-.81,1.6-.15,3.19-.35,4.76-.62.62-.11.82.1,1.05.6a36.52,36.52,0,0,0,4.7,8c4.18,5.16,9.11,9.34,15.45,11.61a15.16,15.16,0,0,0,5.66,1A6.68,6.68,0,0,0,203.37,175.65Z"/><path d="M236.65,121.87A49.16,49.16,0,0,0,244.27,110a47.64,47.64,0,0,0,3.44-12.39,66.9,66.9,0,0,0-.12-21.37,41.24,41.24,0,0,0-10.34-21.77A26.49,26.49,0,0,0,219.86,46a23.38,23.38,0,0,0-18.34,6,16.92,16.92,0,0,0-5.36,9.83,18.83,18.83,0,0,0,1,11.55,16.66,16.66,0,0,0,10.09,9.47c5.74,1.93,13.6.42,17.22-6.15,3.15-5.7,1.53-12.18-4.23-15.07a7.82,7.82,0,0,0-7.3-.05,8.4,8.4,0,0,0-4,3.33,5.19,5.19,0,0,0,1.36,6.79,3.67,3.67,0,0,0,3.89.52,2.12,2.12,0,0,0,1.24-2.3.68.68,0,0,0-.26,0,1.56,1.56,0,0,1-2.32-.31,2.22,2.22,0,0,1-.12-2.84,3.37,3.37,0,0,1,3.49-1.22c3.21.58,4.67,4.4,2.86,7.38a7.78,7.78,0,0,1-11.19,2,10.68,10.68,0,0,1-2.17-15.35,14.6,14.6,0,0,1,13.5-5.84c7.1.56,12.34,4.42,16.35,10a29.6,29.6,0,0,1,5.4,23A37.07,37.07,0,0,1,236.78,98a36.39,36.39,0,0,1-7.33,9.9l-.65.58c-.07-.44-.12-.8-.19-1.14a15.17,15.17,0,0,0-6.5-9.58c-3.33-2.24-6.85-4.21-10.35-6.2a99.83,99.83,0,0,1-14.49-9.45A43.14,43.14,0,0,1,186,68.62a22.13,22.13,0,0,1-.63-19.83,29.75,29.75,0,0,1,15.62-16,26.55,26.55,0,0,1,14.4-2c7.94,1,15,4.37,21.55,8.76a41.74,41.74,0,0,1,15.87,19.75,44.58,44.58,0,0,1,3.11,18.35,67.14,67.14,0,0,1-4.19,20.49,68.9,68.9,0,0,1-12.32,21.49C238.2,121.15,237.71,121.53,236.65,121.87Z"/><path d="M242.93,100.78c-.21,1.79-.33,3.61-.66,5.39a28,28,0,0,1-6.54,13A74.39,74.39,0,0,1,226,129.1a108.69,108.69,0,0,1-20.74,13.12,107.37,107.37,0,0,1-28.33,9.08c-1.94.35-3.91.52-5.87.77-.19,0-.39,0-.76,0,.76-2.34,1.47-4.6,2.25-6.84.07-.21.48-.38.75-.41,2.83-.39,5.67-.64,8.48-1.13A120.36,120.36,0,0,0,203.2,138a91,91,0,0,0,19.53-9.78,57.92,57.92,0,0,0,13-11.7,33.38,33.38,0,0,0,6.65-13.3c.19-.8.23-1.63.34-2.44Z"/><path d="M202.66,112.88a13.41,13.41,0,0,0-5.34-6.31c-3.46-2.36-7-4.66-10.38-7.12-5-4.2-12.35-11-16.4-15.94a38.47,38.47,0,0,0,1.26,11.65,13.31,13.31,0,0,0,5.89,8.1c.39.24,3.26,2.27,3.83,2.55,4.45,3.26,4.67,9.07,3.35,12.74a15.62,15.62,0,0,1-5.81,7.27,12.08,12.08,0,0,0-5.1,9.43c-.15,2.43.64,4.25,2.78,5.06a.77.77,0,0,0,1-.23c.63-.74,1.29-1.46,2-2.15,3.2-3.17,6.65-6,11-7.52a25.9,25.9,0,0,0,6.51-3.35,13.72,13.72,0,0,0,6.13-11.19A19.78,19.78,0,0,0,202.66,112.88Z"/><path d="M208.79,124.39c-.64.92-1.16,1.67-1.67,2.42-1.74,2.54-3.48,5.07-5.21,7.62a3.19,3.19,0,0,0-.63,1.09c-.19,1-.9,1.17-1.67,1.41a108.11,108.11,0,0,1-14.92,3.62,5.74,5.74,0,0,0-.66.16c.6-1.9,3.45-4.53,5.32-4.92A26.36,26.36,0,0,0,204.21,127s.08-.07.1-.11C205.1,124.91,207,124.94,208.79,124.39Z"/><path d="M204.26,135.2q3.74-5.65,7.47-11.29a1.92,1.92,0,0,1,.77-.67c1.83-.87,3.68-1.7,5.52-2.53a4,4,0,0,1,.48-.18c-.61,1.45-1.17,2.79-1.72,4.14-.75,1.83-1.6,3.62-2.19,5.5A2.41,2.41,0,0,1,213,131.8l-7.63,3.13-1,.4Z"/><path d="M217,129.76c.26-.77.44-1.41.68-2,1.07-2.66,2.14-5.33,3.25-8a3,3,0,0,1,.92-1.11c1-.77,2-1.47,3.14-2.29,0,.33.07.56.07.79,0,2.42-.08,4.84-.15,7.27a1.16,1.16,0,0,1-.39.8c-2.36,1.51-4.74,3-7.11,4.45A2,2,0,0,1,217,129.76Z"/><path d="M230,112c.52,2.31,1,4.56,1.53,6.82a.76.76,0,0,1-.19.61c-1.45,1.35-2.92,2.68-4.39,4l-.26-.12v-3.92c0-1.27,0-2.55,0-3.82a1.72,1.72,0,0,1,.47-1.09C228.05,113.68,229,112.9,230,112Z"/><path d="M233,118c-.39-1.28-.76-2.38-1.07-3.49-.24-.89-.41-1.8-.64-2.7a1.41,1.41,0,0,1,.41-1.49c.59-.56,1.12-1.18,1.69-1.79.7,2.09,1.38,4.14,2.05,6.2a.77.77,0,0,1-.05.62C234.65,116.18,233.89,117,233,118Z"/><path d="M236.41,113.53c-.43-1.17-.79-2.36-1.29-3.49-.8-1.8-.8-3.41.78-4.8a5.52,5.52,0,0,0,.49-.65c.48,1.18.92,2.34,1.42,3.46.21.48.58.88.83,1.33.11.2.23.51.14.66-.66,1.2-1.36,2.36-2.06,3.53Z"/><path d="M240.82,105.08a11.31,11.31,0,0,0-1.51-4.81.83.83,0,0,1,0-.62c.77-1.89,1.56-3.77,2.34-5.66,0,0,.08,0,.12-.07C242.34,95.79,242.16,102.06,240.82,105.08Z"/><path d="M239.29,108.93a1.55,1.55,0,0,0-.4-1.33,17,17,0,0,1-1-2c-.77-1.24-.93-2.37.13-3.54a8.93,8.93,0,0,0,.91-1.56c.56,1.4,1.13,2.63,1.54,3.92C241,106.1,240,107.51,239.29,108.93Z"/><text class="cls-2" transform="translate(16.21 170.1)">E<tspan class="cls-3" x="36.7" y="0">N</tspan><tspan class="cls-4" x="97.42" y="0" xml:space="preserve">T    </tspan><tspan class="cls-5" x="232.15" y="0">A</tspan><tspan class="cls-6" x="283.51" y="0">l</tspan><tspan class="cls-7" x="300.78" y="0">l</tspan><tspan class="cls-8" x="319.68" y="0">e</tspan><tspan class="cls-9" x="358.04" y="0">r</tspan><tspan class="cls-10" x="383.15" y="0">g</tspan><tspan class="cls-4" x="423.35" y="0">y</tspan></text></g></svg>