<svg id="Final_Artboards_text_outlines" data-name="Final Artboards text outlines" xmlns="http://www.w3.org/2000/svg" viewBox="0 0 38.69 27.66"><defs><style>.cls-1{fill:#231f20;}.cls-2{fill:#fff;}</style></defs><title>ENTA logo solid tragus</title><path class="cls-1" d="M16.55,23.51l-.13,0a1.82,1.82,0,0,1-.73-.13,4.58,4.58,0,0,1-2-1.51,4.79,4.79,0,0,1-.61-1.05.12.12,0,0,0-.14-.08c-.21,0-.41.07-.62.09s-.1,0-.1.1a7,7,0,0,0,.05,1.3,4.18,4.18,0,0,0,.59,1.67A2.45,2.45,0,0,0,14.11,25,3.27,3.27,0,0,0,17,24.62,5.36,5.36,0,0,0,18.59,23c.6-.91,1.18-1.84,1.76-2.77a15.43,15.43,0,0,1,1.5-2.1c.55-.61,1.08-1.24,1.6-1.88a12.52,12.52,0,0,0,1.7-2.83,8.31,8.31,0,0,0,.69-3,7.87,7.87,0,0,0-.91-4.09,7.54,7.54,0,0,0-2.87-3,7.65,7.65,0,0,0-3.19-1,7.78,7.78,0,0,0-3,.31,6,6,0,0,0-3.24,2.35,5.55,5.55,0,0,0-1,3,3,3,0,0,0,.1,1,7,7,0,0,0,.47,1.09,8.31,8.31,0,0,0,1.4,1.83,13,13,0,0,0,2.12,1.72,4.45,4.45,0,0,1,1,.85A1.88,1.88,0,0,1,17.24,16c0,.12,0,.23-.07.35h0l.19-.07a8.62,8.62,0,0,0,1.78-.93.15.15,0,0,0,.08-.17,1.69,1.69,0,0,0-.77-1.28c-.31-.21-.64-.39-1-.57a15.33,15.33,0,0,1-1.93-1.18,6.49,6.49,0,0,1-1.83-2,3.73,3.73,0,0,1-.15-3.7,4.51,4.51,0,0,1,2.47-2.29,4.35,4.35,0,0,1,2.42-.25,7.1,7.1,0,0,1,1.9.64A6.88,6.88,0,0,1,23.06,6.8a6.56,6.56,0,0,1,1.12,3.67,8,8,0,0,1-.4,2.61,10.89,10.89,0,0,1-1.36,2.73,4.66,4.66,0,0,1-.83.94,1.22,1.22,0,0,1-.75.3l-.46.05a.81.81,0,0,0-.46.27l1.93-.05-.21.16a2.06,2.06,0,0,1-.8.39,4.37,4.37,0,0,1-1.35.07.45.45,0,0,0-.34.06c-.1.08-.21.13-.33.21l2.33.13,0,0-.09,0a1.87,1.87,0,0,1-.65.35,3.58,3.58,0,0,1-2.22,0,.2.2,0,0,0-.17,0l-.42.26,0,0,.8.22a8.11,8.11,0,0,0,1.69.38.79.79,0,0,1,.13.05.48.48,0,0,1-.12.1,2,2,0,0,1-.86.27,4.42,4.42,0,0,1-2.42-.48.2.2,0,0,0-.2,0l-.73.31a0,0,0,0,0,0,0,0l.23,0a7.2,7.2,0,0,1,1.31.5,10,10,0,0,0,1.62.66l.09.05s0,.08,0,.1a2.49,2.49,0,0,1-1,.24,4.42,4.42,0,0,1-1.56-.31A5.43,5.43,0,0,1,15,20.35a.19.19,0,0,0-.18,0l-.73.19-.1,0a4.21,4.21,0,0,1,.83.8c.46.56.9,1.14,1.34,1.72Zm4.34-7c.14,0,.2-.09.36-.28a8.89,8.89,0,0,0,1.61-2.8,8.77,8.77,0,0,0,.55-2.68A5.77,5.77,0,0,0,23,8.34a5.47,5.47,0,0,0-2.07-2.58,6.54,6.54,0,0,0-2.81-1.14,3.46,3.46,0,0,0-1.88.25A4,4,0,0,0,14.2,7a2.89,2.89,0,0,0,.08,2.58,5.71,5.71,0,0,0,1.47,1.77,13.59,13.59,0,0,0,1.89,1.23c.46.26.92.52,1.35.81a2,2,0,0,1,.85,1.25s0,.09,0,.15l.08-.08a4.88,4.88,0,0,0,1-1.29,4.89,4.89,0,0,0,.55-1.48,3.91,3.91,0,0,0-.71-3,2.86,2.86,0,0,0-2.13-1.3,1.88,1.88,0,0,0-1.76.76,1.39,1.39,0,0,0,.28,2,1,1,0,0,0,1.46-.25.64.64,0,0,0-.37-1,.45.45,0,0,0-.46.16.28.28,0,0,0,0,.37.2.2,0,0,0,.3,0h0A.28.28,0,0,1,18,10a.48.48,0,0,1-.51-.07.68.68,0,0,1-.17-.88,1,1,0,0,1,.52-.44,1,1,0,0,1,.95,0,1.36,1.36,0,0,1,.56,2,1.89,1.89,0,0,1-2.25.81,2.21,2.21,0,0,1-1.32-1.24,2.52,2.52,0,0,1-.13-1.51,2.15,2.15,0,0,1,.7-1.28,3,3,0,0,1,2.39-.78A3.43,3.43,0,0,1,21,7.7a5.31,5.31,0,0,1,1.35,2.84,8.64,8.64,0,0,1,0,2.78,6.5,6.5,0,0,1-.45,1.62A6.73,6.73,0,0,1,20.89,16.49Zm-4.34-.78a2.94,2.94,0,0,0-.09-.39,1.8,1.8,0,0,0-.7-.82c-.45-.31-.91-.61-1.35-.93a.37.37,0,0,0-.35-.05.43.43,0,0,0-.34.28,2.73,2.73,0,0,0-.1.41.17.17,0,0,0,.08.19,1.44,1.44,0,0,1,.43,1.66,2.06,2.06,0,0,1-.75,1,1.56,1.56,0,0,0-.67,1.23.59.59,0,0,0,.36.66c.06,0,.1,0,.14,0a3.45,3.45,0,0,1,.26-.28,3.73,3.73,0,0,1,1.43-1,3.43,3.43,0,0,0,.85-.44A1.81,1.81,0,0,0,16.55,15.71Zm5.16-2h0c0,.1,0,.21,0,.32a4.23,4.23,0,0,1-.87,1.73,7.68,7.68,0,0,1-1.69,1.53,12.38,12.38,0,0,1-2.55,1.27,15,15,0,0,1-2.8.75c-.36.06-.73.1-1.1.15,0,0-.09,0-.1.05l-.3.89s.08,0,.1,0c.26,0,.52-.05.77-.1a14.26,14.26,0,0,0,3.7-1.18,14.32,14.32,0,0,0,2.7-1.71,10.31,10.31,0,0,0,1.27-1.29,3.7,3.7,0,0,0,.86-1.71C21.67,14.21,21.68,14,21.71,13.74ZM14,13.27a13.53,13.53,0,0,1-1.77-1.78A5.14,5.14,0,0,0,12.43,13a1.76,1.76,0,0,0,.77,1.06l.18.08C13.37,13.69,13.52,13.36,14,13.27Zm3.23,3.55c-.24.07-.48.07-.59.32,0,0,0,0,0,0a3.41,3.41,0,0,1-1.94,1.15A1.22,1.22,0,0,0,14,19l.09,0a14.57,14.57,0,0,0,1.95-.47c.1,0,.19-.06.22-.19a.5.5,0,0,1,.08-.14l.68-1A3.74,3.74,0,0,1,17.26,16.82Zm-.6,1.41,0,0,.12-.05,1-.41a.28.28,0,0,0,.2-.21c.08-.25.19-.48.29-.72l.22-.54-.06,0-.72.33a.22.22,0,0,1-.1.09Zm1.66-.71h.06c.31-.19.62-.38.92-.58a.21.21,0,0,0,.06-.1c0-.32,0-.64,0-.95a.4.4,0,0,1,0-.11c-.15.11-.29.2-.41.3a.35.35,0,0,1-.12.15c-.15.34-.29.69-.43,1C18.38,17.34,18.36,17.42,18.32,17.52ZM20,15.21a3.81,3.81,0,0,0-.36.33.23.23,0,0,0-.07.14v1h0l.57-.52a.08.08,0,0,0,0-.08C20.16,15.8,20.09,15.51,20,15.21Zm.39.78.32-.35a.11.11,0,0,0,0-.08q-.12-.41-.27-.81a2.39,2.39,0,0,1-.22.23.19.19,0,0,0,0,.2c0,.11,0,.23.08.35S20.36,15.82,20.41,16Zm.45-.59h0l.27-.46a.11.11,0,0,0,0-.09c0-.06-.08-.11-.11-.17l-.18-.45a.27.27,0,0,1-.07.08.5.5,0,0,0-.1.63C20.76,15.1,20.8,15.25,20.86,15.4Zm.58-1.1a3.13,3.13,0,0,0,.12-1.45h0c-.11.24-.21.49-.31.73a.11.11,0,0,0,0,.08A1.6,1.6,0,0,1,21.44,14.3Zm-.2.5c.09-.18.22-.36.14-.59a4.12,4.12,0,0,0-.2-.51.76.76,0,0,1-.12.2.35.35,0,0,0,0,.46,1.69,1.69,0,0,0,.13.27A.24.24,0,0,1,21.24,14.8Z"/><path d="M16.55,23.51l-.36-.46c-.44-.58-.88-1.16-1.34-1.72a4.21,4.21,0,0,0-.83-.8l.1,0,.73-.19a.19.19,0,0,1,.18,0,5.43,5.43,0,0,0,1.49.82,4.42,4.42,0,0,0,1.56.31,2.49,2.49,0,0,0,1-.24c.07,0,.07-.06,0-.1L19,21.09a10,10,0,0,1-1.62-.66,7.2,7.2,0,0,0-1.31-.5l-.23,0a0,0,0,0,1,0,0l.73-.31a.2.2,0,0,1,.2,0,4.42,4.42,0,0,0,2.42.48,2,2,0,0,0,.86-.27.48.48,0,0,0,.12-.1.79.79,0,0,0-.13-.05,8.11,8.11,0,0,1-1.69-.38l-.8-.22,0,0,.42-.26a.2.2,0,0,1,.17,0,3.58,3.58,0,0,0,2.22,0,1.87,1.87,0,0,0,.65-.35l.09,0,0,0-2.33-.13c.12-.08.23-.13.33-.21a.45.45,0,0,1,.34-.06,4.37,4.37,0,0,0,1.35-.07,2.06,2.06,0,0,0,.8-.39l.21-.16-1.93.05a.81.81,0,0,1,.46-.27l.46-.05a1.22,1.22,0,0,0,.75-.3,4.66,4.66,0,0,0,.83-.94,10.89,10.89,0,0,0,1.36-2.73,8,8,0,0,0,.4-2.61A6.56,6.56,0,0,0,23.06,6.8a6.88,6.88,0,0,0-2.69-2.27,7.1,7.1,0,0,0-1.9-.64,4.35,4.35,0,0,0-2.42.25,4.51,4.51,0,0,0-2.47,2.29,3.73,3.73,0,0,0,.15,3.7,6.49,6.49,0,0,0,1.83,2,15.33,15.33,0,0,0,1.93,1.18c.33.18.66.36,1,.57a1.69,1.69,0,0,1,.77,1.28.15.15,0,0,1-.08.17,8.62,8.62,0,0,1-1.78.93l-.19.07h0c0-.12.06-.23.07-.35a1.88,1.88,0,0,0-.46-1.49,4.45,4.45,0,0,0-1-.85,13,13,0,0,1-2.12-1.72,8.31,8.31,0,0,1-1.4-1.83A7,7,0,0,1,11.75,9a3,3,0,0,1-.1-1,5.55,5.55,0,0,1,1-3,6,6,0,0,1,3.24-2.35,7.78,7.78,0,0,1,3-.31,7.65,7.65,0,0,1,3.19,1,7.54,7.54,0,0,1,2.87,3,7.87,7.87,0,0,1,.91,4.09,8.31,8.31,0,0,1-.69,3,12.52,12.52,0,0,1-1.7,2.83c-.52.64-1.05,1.27-1.6,1.88a15.43,15.43,0,0,0-1.5,2.1c-.58.93-1.16,1.86-1.76,2.77A5.36,5.36,0,0,1,17,24.62a3.27,3.27,0,0,1-2.91.38,2.45,2.45,0,0,1-1.27-1.08,4.18,4.18,0,0,1-.59-1.67A7,7,0,0,1,12.2,21c0-.07,0-.1.1-.1s.41-.05.62-.09a.12.12,0,0,1,.14.08,4.79,4.79,0,0,0,.61,1.05,4.58,4.58,0,0,0,2,1.51,1.82,1.82,0,0,0,.73.13Z"/><path d="M20.89,16.49a6.73,6.73,0,0,0,1-1.55,6.5,6.5,0,0,0,.45-1.62,8.64,8.64,0,0,0,0-2.78A5.31,5.31,0,0,0,21,7.7,3.43,3.43,0,0,0,18.7,6.59a3,3,0,0,0-2.39.78,2.15,2.15,0,0,0-.7,1.28,2.52,2.52,0,0,0,.13,1.51,2.21,2.21,0,0,0,1.32,1.24,1.89,1.89,0,0,0,2.25-.81,1.36,1.36,0,0,0-.56-2,1,1,0,0,0-.95,0,1,1,0,0,0-.52.44.68.68,0,0,0,.17.88A.48.48,0,0,0,18,10a.28.28,0,0,0,.16-.3h0a.2.2,0,0,1-.3,0,.28.28,0,0,1,0-.37.45.45,0,0,1,.46-.16.64.64,0,0,1,.37,1,1,1,0,0,1-1.46.25,1.39,1.39,0,0,1-.28-2,1.88,1.88,0,0,1,1.76-.76,2.86,2.86,0,0,1,2.13,1.3,3.91,3.91,0,0,1,.71,3,4.89,4.89,0,0,1-.55,1.48,4.88,4.88,0,0,1-1,1.29l-.08.08q0-.09,0-.15A2,2,0,0,0,19,13.35c-.43-.29-.89-.55-1.35-.81a13.59,13.59,0,0,1-1.89-1.23,5.71,5.71,0,0,1-1.47-1.77A2.89,2.89,0,0,1,14.2,7a4,4,0,0,1,2-2.09,3.46,3.46,0,0,1,1.88-.25,6.54,6.54,0,0,1,2.81,1.14A5.47,5.47,0,0,1,23,8.34a5.77,5.77,0,0,1,.41,2.39,8.77,8.77,0,0,1-.55,2.68,8.89,8.89,0,0,1-1.61,2.8C21.09,16.4,21,16.45,20.89,16.49Z"/><path d="M21.71,13.74c0,.24,0,.47-.08.7a3.7,3.7,0,0,1-.86,1.71,10.31,10.31,0,0,1-1.27,1.29,14.32,14.32,0,0,1-2.7,1.71,14.26,14.26,0,0,1-3.7,1.18c-.25.05-.51.07-.77.1,0,0-.05,0-.1,0l.3-.89s.06-.05.1-.05c.37,0,.74-.09,1.1-.15a15,15,0,0,0,2.8-.75,12.38,12.38,0,0,0,2.55-1.27,7.68,7.68,0,0,0,1.69-1.53,4.23,4.23,0,0,0,.87-1.73c0-.11,0-.22,0-.32Z"/><path d="M16.46,15.32a2.94,2.94,0,0,0-.09-.39,1.8,1.8,0,0,0-.7-.82c-.45-.31-.91-.61-1.35-.93a.37.37,0,0,0-.35-.05.43.43,0,0,0-.34.28,2.73,2.73,0,0,0-.1.41.17.17,0,0,0,.08.19,1.44,1.44,0,0,1,.43,1.66,2.06,2.06,0,0,1-.75,1,1.56,1.56,0,0,0-.67,1.23.59.59,0,0,0,.36.66c.06,0,.1,0,.14,0a3.45,3.45,0,0,1,.26-.28,3.73,3.73,0,0,1,1.43-1,3.43,3.43,0,0,0,.85-.44,1.81,1.81,0,0,0,.8-1.46Z"/><path d="M17.26,16.82a3.74,3.74,0,0,0-.22.32l-.68,1a.5.5,0,0,0-.08.14c0,.13-.12.16-.22.19a14.57,14.57,0,0,0-1.95.47L14,19a1.22,1.22,0,0,0,.7-.64,3.41,3.41,0,0,0,1.94-1.15s0,0,0,0C16.78,16.89,17,16.89,17.26,16.82Z"/><path d="M16.66,18.23l1-1.47a.22.22,0,0,1,.1-.09l.72-.33.06,0-.22.54c-.1.24-.21.47-.29.72a.28.28,0,0,0-.2.21l-1,.41-.12.05Z"/><path d="M18.32,17.52c0-.1.06-.18.09-.26.14-.35.28-.7.43-1a.35.35,0,0,1,.12-.15c.12-.1.26-.19.41-.3a.4.4,0,0,1,0,.11c0,.31,0,.63,0,.95a.21.21,0,0,0,.06.1c-.3.2-.61.39-.92.58Z"/><path d="M20,15.21a3.81,3.81,0,0,0-.36.33.23.23,0,0,0-.07.14v1h0l.57-.52a.08.08,0,0,0,0-.08C20.16,15.8,20.09,15.51,20,15.21Z"/><path d="M20.41,16c-.05-.17-.09-.31-.14-.46s-.05-.24-.08-.35a.19.19,0,0,0,0-.2,2.39,2.39,0,0,0,.22-.23q.15.4.27.81a.11.11,0,0,0,0,.08Z"/><path d="M20.86,15.4c-.06-.15-.1-.3-.17-.45a.5.5,0,0,0,.1-.63.27.27,0,0,1,.07-.08l.18.45c0,.06.08.11.11.17a.11.11,0,0,0,0,.09l-.27.46Z"/><path d="M21.44,14.3a1.6,1.6,0,0,0-.2-.63.11.11,0,0,0,0-.08c.1-.24.2-.49.31-.73h0A3.13,3.13,0,0,1,21.44,14.3Z"/><path d="M21.24,14.8a.24.24,0,0,0-.06-.17,1.69,1.69,0,0,0-.13-.27.35.35,0,0,0,0-.46.76.76,0,0,1,.12-.2,4.12,4.12,0,0,1,.2.51C21.46,14.44,21.33,14.62,21.24,14.8Z"/><path class="cls-2" d="M2.69,20.16l0-.64.45,0H4l.44,0a1.13,1.13,0,0,0,0,.3l-.29,0-.28,0-.32,0H3.13c0,.11,0,.21,0,.31a3.11,3.11,0,0,0,0,.32V21h1l.23,0a.57.57,0,0,0,0,.3l-.3,0-.34,0H3.11v1.18a2.1,2.1,0,0,0,0,.28h.71l.35,0,.28,0s0,.05,0,.08v.08a.51.51,0,0,0,0,.13H2.66l0-.64c0-.2,0-.42,0-.64V20.8C2.7,20.58,2.7,20.37,2.69,20.16Z"/><path class="cls-2" d="M6.75,21.64,5.46,20.26c0,.1,0,.22,0,.38s0,.36,0,.63v.26c0,.1,0,.21,0,.32s0,.23,0,.34,0,.23,0,.33a2.09,2.09,0,0,0,0,.26.58.58,0,0,0,0,.15H5.13s0-.1,0-.19a2.73,2.73,0,0,0,0-.32c0-.12,0-.25,0-.4s0-.29,0-.44,0-.28,0-.42V20c0-.23,0-.4,0-.51H5.3l.64.7.69.74.64.69c.21.21.38.4.54.55v-.68c0-.34,0-.68,0-1s0-.64,0-.93l.17,0,.15,0c0,.07,0,.18,0,.33s0,.3,0,.46l0,.49c0,.16,0,.29,0,.38v.3c0,.11,0,.23,0,.35v.37c0,.12,0,.24,0,.35V23H8C7.58,22.55,7.17,22.1,6.75,21.64Z"/><path class="cls-2" d="M9.75,19.78H9.2l-.28,0-.23,0a.47.47,0,0,0,0-.16.5.5,0,0,0,0-.15l.64,0h1.28l.64,0a.61.61,0,0,0,0,.16.49.49,0,0,0,0,.15l-.24,0-.27,0h-.55c0,.34,0,.68,0,1v.85c0,.22,0,.43,0,.64l0,.63H9.72l0-.63c0-.21,0-.42,0-.64v-.85C9.76,20.46,9.76,20.12,9.75,19.78Z"/><path class="cls-2" d="M24,22.93H23.5l-.1-.28c0-.11-.08-.22-.13-.34L23.12,22c-.05-.12-.09-.24-.14-.35H21.73c-.11.26-.2.51-.29.74s-.15.43-.19.58h-.37c.27-.58.53-1.16.79-1.73s.51-1.15.76-1.74h.1c.08.19.16.4.26.62s.18.45.28.68.19.45.29.67.18.44.27.63.16.37.22.52Zm-2.2-1.54h1.1l-.56-1.26Z"/><path class="cls-2" d="M24.64,20.25c0-.13,0-.26,0-.39s0-.25,0-.37,0-.22,0-.3a1,1,0,0,0,.22,0,1,1,0,0,0,.23,0c0,.08,0,.18,0,.3s0,.24,0,.37,0,.26,0,.39v1.63c0,.13,0,.26,0,.39s0,.25,0,.37,0,.21,0,.29H24.6c0-.08,0-.17,0-.29s0-.24,0-.37,0-.26,0-.39V20.25Z"/><path class="cls-2" d="M25.93,20.25c0-.13,0-.26,0-.39s0-.25,0-.37a2.36,2.36,0,0,0,0-.3,1.06,1.06,0,0,0,.23,0,1,1,0,0,0,.22,0c0,.08,0,.18,0,.3s0,.24,0,.37,0,.26,0,.39v1.63c0,.13,0,.26,0,.39s0,.25,0,.37,0,.21,0,.29h-.45a2.19,2.19,0,0,0,0-.29c0-.12,0-.24,0-.37s0-.26,0-.39V20.25Z"/><path class="cls-2" d="M27,21.83a1.41,1.41,0,0,1,.29-1,1,1,0,0,1,.84-.35,1.26,1.26,0,0,1,.46.08,1.21,1.21,0,0,1,.32.22.94.94,0,0,1,.19.32,1.27,1.27,0,0,1,.06.39v.1a.31.31,0,0,0,0,.1H27.42a.56.56,0,0,0,0,.07v.07a1,1,0,0,0,.06.36.77.77,0,0,0,.17.29.83.83,0,0,0,.26.19.87.87,0,0,0,.37.07l.2,0,.21-.08.18-.11a.67.67,0,0,0,.15-.14l0,0,0,.24a1.18,1.18,0,0,1-.37.2,1.22,1.22,0,0,1-.46.09,1.53,1.53,0,0,1-.49-.08,1.36,1.36,0,0,1-.38-.24,1.15,1.15,0,0,1-.25-.37A1.39,1.39,0,0,1,27,21.83Zm1.14-1.15a.54.54,0,0,0-.31.09.7.7,0,0,0-.21.21,1.11,1.11,0,0,0-.12.27,1,1,0,0,0-.05.29h1.3c0-.09,0-.18,0-.28a.66.66,0,0,0-.09-.28.48.48,0,0,0-.19-.21A.48.48,0,0,0,28.12,20.68Z"/><path class="cls-2" d="M30.76,20.92l-.15,0a.42.42,0,0,0-.37.2.64.64,0,0,0-.1.22,1.1,1.1,0,0,0,0,.27v.54c0,.23,0,.39,0,.51a2.44,2.44,0,0,0,0,.29h-.4c0-.12,0-.27,0-.46V21.15c0-.17,0-.36,0-.58l.1,0H30l.1,0c0,.12,0,.22,0,.28v.2h0c.19-.36.41-.54.65-.54h.08l.08,0a1.64,1.64,0,0,0,0,.18V21l0,0A.23.23,0,0,0,30.76,20.92Z"/><path class="cls-2" d="M31.32,21.33a.8.8,0,0,1,.07-.36.72.72,0,0,1,.21-.25,1.05,1.05,0,0,1,.3-.15,1.5,1.5,0,0,1,.37-.05h.4l.2,0H33l.4,0a.07.07,0,0,0,0,.05v.1a.13.13,0,0,0,0,.06l-.28,0h-.28a.63.63,0,0,1,.25.26.74.74,0,0,1,.09.36.7.7,0,0,1-.25.58,1,1,0,0,1-.67.21H32a.26.26,0,0,0-.16.07.21.21,0,0,0-.08.16.25.25,0,0,0,.06.19.39.39,0,0,0,.23.07h.55a1.48,1.48,0,0,1,.39.05.8.8,0,0,1,.26.14.45.45,0,0,1,.15.19.6.6,0,0,1,.05.24,1.09,1.09,0,0,1-.07.35.75.75,0,0,1-.21.32,1,1,0,0,1-.36.24,1.44,1.44,0,0,1-.54.1,1.4,1.4,0,0,1-.76-.19.62.62,0,0,1-.27-.53.67.67,0,0,1,0-.24.76.76,0,0,1,.12-.19.52.52,0,0,1,.17-.13.84.84,0,0,1,.2-.08h0a.45.45,0,0,1-.24-.15.41.41,0,0,1-.08-.24.29.29,0,0,1,0-.16.5.5,0,0,1,.08-.12.31.31,0,0,1,.11-.09l.13-.05h0a.75.75,0,0,1-.49-.73Zm1.76,2.12a.47.47,0,0,0-.17-.41,1.07,1.07,0,0,0-.58-.12,1.1,1.1,0,0,0-.57.12.47.47,0,0,0-.21.44.65.65,0,0,0,.06.29.7.7,0,0,0,.15.19,1,1,0,0,0,.23.11,1.36,1.36,0,0,0,.29,0,.92.92,0,0,0,.29,0,.57.57,0,0,0,.26-.12.7.7,0,0,0,.18-.2A.52.52,0,0,0,33.08,23.45Zm-.27-2.14a.69.69,0,0,0-.15-.48.56.56,0,0,0-.8,0,.73.73,0,0,0-.15.48.79.79,0,0,0,.13.49.51.51,0,0,0,.43.18.47.47,0,0,0,.24-.05.44.44,0,0,0,.17-.16.5.5,0,0,0,.1-.22A1.09,1.09,0,0,0,32.81,21.31Z"/><path class="cls-2" d="M34.8,22.93c0-.09-.08-.2-.14-.34s-.12-.3-.19-.45-.13-.32-.2-.48l-.19-.47c-.07-.14-.12-.27-.17-.38s-.08-.18-.1-.24l.12,0h.22l.12,0c.1.32.21.63.34.94s.26.64.39,1a10.21,10.21,0,0,0,.4-.94c.13-.33.24-.65.34-1l.17,0,.16,0-.11.24-.18.39q-.11.24-.24.51c-.08.19-.17.38-.25.58s-.18.39-.26.59-.17.37-.24.55-.14.33-.19.47-.1.25-.13.33a.5.5,0,0,0-.16,0,.52.52,0,0,0-.17,0A9.35,9.35,0,0,0,34.8,22.93Z"/></svg>