<svg id="Final_Artboards_text_outlines" data-name="Final Artboards text outlines" xmlns="http://www.w3.org/2000/svg" viewBox="0 0 277.57 198.43"><defs><style>.cls-1{fill:#fff;}</style></defs><title>ENTA logo solid tragus</title><path class="cls-1" d="M111.39,187a25.49,25.49,0,0,1-8.16-1.39c-3.77-1.28-6.94-4-9.7-8.24a31,31,0,0,1-4.46-12.73,54.17,54.17,0,0,1-.41-9.93c0-.5.14-.62.65-.67,1.79-.18,3.35-.38,4.77-.63a1.23,1.23,0,0,1,.26,0c.3,0,.44.12.64.54a37.69,37.69,0,0,0,4.71,8c4.69,5.77,9.76,9.59,15.52,11.65a15.48,15.48,0,0,0,5.3,1h.4a2.9,2.9,0,0,0,.61-.09l.6-.11-2.88-3.73q-1.51-1.95-3-3.92c-2.35-3.06-4.78-6.23-7.24-9.3a33.58,33.58,0,0,0-6.16-5.9l2-.5c1.36-.34,2.73-.68,4.09-1a1.44,1.44,0,0,1,.44-.07,1.23,1.23,0,0,1,.75.28,44.35,44.35,0,0,0,11.5,6.31A34.09,34.09,0,0,0,133,158.84h.64a20.16,20.16,0,0,0,7.74-1.79c.28-.12.43-.27.46-.46a.63.63,0,0,0-.23-.56,1.8,1.8,0,0,0-.76-.44,77.27,77.27,0,0,1-12.39-5.06,55.2,55.2,0,0,0-10-3.78,10.06,10.06,0,0,0-1.22-.22l-.2,0,1.7-.72c1.23-.52,2.47-1,3.69-1.58A1.55,1.55,0,0,1,123,144a1.62,1.62,0,0,1,.77.22,34.07,34.07,0,0,0,15.84,3.86c.92,0,1.87,0,2.81-.1a15.94,15.94,0,0,0,6.67-2.1,3.48,3.48,0,0,0,.57-.45l.37-.32.19-.15-.22-.09-.44-.19a2.48,2.48,0,0,0-.66-.23,63.91,63.91,0,0,1-12.89-2.9c-1.39-.45-2.83-.81-4.22-1.17l-1.68-.44.13-.09,1.19-.71c.68-.4,1.36-.8,2-1.22a1.14,1.14,0,0,1,.65-.21,1.72,1.72,0,0,1,.48.08,30.13,30.13,0,0,0,9.1,1.47,26.57,26.57,0,0,0,8-1.25,16.06,16.06,0,0,0,5-2.71,2.37,2.37,0,0,1,.42-.22l.22-.11.17-.09-.39-.4-17.46-.95.49-.3a16.61,16.61,0,0,0,1.64-1.08,2.7,2.7,0,0,1,1.74-.51l.75,0c1.41.08,3,.17,4.48.17a23.72,23.72,0,0,0,6-.66,16.12,16.12,0,0,0,6.14-3c.37-.3.74-.58,1.13-.87l.88-.67-14.87.42a5.5,5.5,0,0,1,3.15-1.8l.54-.07c1-.11,2-.23,3-.27a9.58,9.58,0,0,0,5.87-2.38,34.54,34.54,0,0,0,6.36-7.21,82.57,82.57,0,0,0,10.42-21,60.78,60.78,0,0,0,3.08-20c-.23-10.85-3-20.06-8.58-28.16a52.26,52.26,0,0,0-20.7-17.46,52.89,52.89,0,0,0-14.56-4.87,36,36,0,0,0-6.23-.55A32.73,32.73,0,0,0,118,25.69a35,35,0,0,0-19,17.6c-4.61,9.56-4.23,19.14,1.13,28.49,3.15,5.49,7.75,10.46,14.07,15.19a119.59,119.59,0,0,0,14.32,8.76l1.14.63c2.26,1.24,4.6,2.52,6.77,4a12.91,12.91,0,0,1,5.84,9.73,1.12,1.12,0,0,1-.52,1.19,65.17,65.17,0,0,1-13.64,7.09c-.39.16-.78.3-1.18.45l-.14,0c0-.21.11-.43.17-.65a16,16,0,0,0,.39-1.85c.54-4.1-.64-7.87-3.58-11.51-2.17-2.69-5-4.59-7.82-6.44l-.2-.13A96.21,96.21,0,0,1,99.51,85.14a62.87,62.87,0,0,1-10.66-14,45.14,45.14,0,0,1-3.62-8.27,24.15,24.15,0,0,1-.79-7.69A42.22,42.22,0,0,1,92,32,45.8,45.8,0,0,1,116.81,14.1a57.76,57.76,0,0,1,17.26-2.63c1.85,0,3.73.08,5.6.26a58.22,58.22,0,0,1,46.27,31.14,60.87,60.87,0,0,1,7,31.27A64.12,64.12,0,0,1,187.65,97a93.47,93.47,0,0,1-13,21.62c-3.62,4.54-7.61,9.26-12.2,14.44a118.86,118.86,0,0,0-11.55,16.08l-1.58,2.53c-3.86,6.18-7.84,12.57-11.92,18.75a39.77,39.77,0,0,1-11.92,12.23A26.34,26.34,0,0,1,111.39,187Z"/><path class="cls-1" d="M155.6,120.19a49,49,0,0,0,7.29-11.52,47.9,47.9,0,0,0,3.46-12.42,67.46,67.46,0,0,0-.13-21.42A41,41,0,0,0,155.84,53a26.67,26.67,0,0,0-17.47-8.55c-.86-.08-1.71-.13-2.54-.13a23.57,23.57,0,0,0-15.91,6.18,16.92,16.92,0,0,0-5.41,9.9A18.87,18.87,0,0,0,115.57,72a16.82,16.82,0,0,0,10.17,9.55,15.75,15.75,0,0,0,4.92.79,13.91,13.91,0,0,0,12.47-7,11.56,11.56,0,0,0,1.13-9.06,10.39,10.39,0,0,0-5.43-6.21,8.29,8.29,0,0,0-3.77-1,8.19,8.19,0,0,0-3.65.9,8.49,8.49,0,0,0-4.1,3.39,5.29,5.29,0,0,0,1.41,7,4.31,4.31,0,0,0,2.48.89,3.62,3.62,0,0,0,1.55-.36,2.26,2.26,0,0,0,1.31-2.44v-.15l-.15,0a.66.66,0,0,0-.32.07,1.64,1.64,0,0,1-1,.36,1.59,1.59,0,0,1-1.17-.65,2.09,2.09,0,0,1-.11-2.66,3.08,3.08,0,0,1,2.56-1.25,4.41,4.41,0,0,1,.79.08,4.2,4.2,0,0,1,3.1,2.46,5.09,5.09,0,0,1-.34,4.71,7.31,7.31,0,0,1-6.34,3.45,7.83,7.83,0,0,1-4.64-1.52,10.53,10.53,0,0,1-4.32-7,10.76,10.76,0,0,1,2.18-8.12,14.22,14.22,0,0,1,11.85-5.85q.75,0,1.53.06c6.49.52,11.8,3.78,16.24,10a29.45,29.45,0,0,1,5.38,22.84,37,37,0,0,1-4.18,11.31,36.09,36.09,0,0,1-7.3,9.86l-.46.41,0-.16c0-.27-.08-.51-.13-.74a15.27,15.27,0,0,0-6.55-9.67c-3.09-2.07-6.38-3.94-9.56-5.74l-.81-.46a98.66,98.66,0,0,1-14.47-9.44,43,43,0,0,1-11.21-13.46A22,22,0,0,1,104,47.48a29.65,29.65,0,0,1,15.55-15.89,25.85,25.85,0,0,1,10.53-2.2,30.65,30.65,0,0,1,3.79.25c7.08.92,13.91,3.69,21.49,8.74a41.87,41.87,0,0,1,15.81,19.68,44.78,44.78,0,0,1,3.1,18.3,66.86,66.86,0,0,1-4.18,20.45,68.75,68.75,0,0,1-12.3,21.44A6.05,6.05,0,0,1,155.6,120.19Z"/><path class="cls-1" d="M89,150.56l.42-1.3c.59-1.82,1.16-3.59,1.77-5.35,0-.12.37-.28.64-.32,1-.14,2.06-.26,3.09-.39,1.77-.21,3.6-.43,5.38-.73a121,121,0,0,0,21.44-5.73,90.58,90.58,0,0,0,19.57-9.8,57.87,57.87,0,0,0,13-11.73A33.58,33.58,0,0,0,161,101.85l0-.14c-.1,1-.22,2.06-.41,3.07a27.7,27.7,0,0,1-6.52,13,74.5,74.5,0,0,1-9.69,9.86,108.59,108.59,0,0,1-20.72,13.11,107.52,107.52,0,0,1-28.29,9.06c-1.36.25-2.75.4-4.11.56l-1.76.21H89Z"/><path class="cls-1" d="M121.59,113.82a13.75,13.75,0,0,0-.57-2.25,13.21,13.21,0,0,0-5.28-6.25l-2.83-1.91c-2.49-1.68-5.07-3.42-7.55-5.21-4.9-4.14-12.29-10.93-16.19-15.66a38.17,38.17,0,0,0,1.26,11.21,13.12,13.12,0,0,0,5.82,8c.26.15.53.27.84.42.11,0,2.89,2.08,3,2.13,4.37,3.2,4.83,8.93,3.4,12.9a15.62,15.62,0,0,1-5.86,7.34,12,12,0,0,0-5,9.32c-.15,2.53.75,4.19,2.69,4.92a1.28,1.28,0,0,0,.4.09.63.63,0,0,0,.48-.27c.7-.84,1.35-1.54,2-2.16,2.86-2.84,6.41-5.95,11-7.56a26.27,26.27,0,0,0,6.47-3.33,13.54,13.54,0,0,0,6.08-11C121.68,114.33,121.64,114.09,121.59,113.82Z"/><path class="cls-1" d="M102.75,139.14c.73-1.81,3.39-4.22,5.12-4.58a26.57,26.57,0,0,0,14.94-8.88.42.42,0,0,0,.12-.16c.6-1.44,1.81-1.73,3.22-2.06l.79-.19-2.14,3.11-4.51,6.6-.17.24a2.38,2.38,0,0,0-.49.91c-.17.87-.78,1.06-1.55,1.3A108.25,108.25,0,0,1,103.16,139Z"/><path class="cls-1" d="M124.29,131.77q3-4.59,6-9.15a1.8,1.8,0,0,1,.72-.62c1.41-.67,2.83-1.31,4.25-2l1.26-.57.17-.07-1.6,3.85c-.21.51-.43,1-.65,1.54a40.29,40.29,0,0,0-1.54,4,2.25,2.25,0,0,1-1.48,1.54l-5.64,2.32L123,133.8Z"/><path class="cls-1" d="M135.84,127.72c.14-.47.28-.89.44-1.3,1-2.47,2.1-5.26,3.24-8a2.93,2.93,0,0,1,.88-1c.7-.55,1.41-1.06,2.17-1.6l.77-.55v.07a4.09,4.09,0,0,1,0,.46v.73c0,2.18-.07,4.36-.14,6.54a1,1,0,0,1-.33.69c-2,1.25-3.94,2.48-5.93,3.71l-1.17.73-.12,0h0C135.73,128,135.79,127.88,135.84,127.72Z"/><path class="cls-1" d="M145.32,121.9v-4.85c0-.92,0-1.86,0-2.79a1.63,1.63,0,0,1,.43-1c.62-.61,1.28-1.18,2-1.78l.65-.57.26,1.13c.42,1.84.84,3.65,1.23,5.46a.65.65,0,0,1-.15.48q-1.71,1.59-3.44,3.16l-.88.8Z"/><path class="cls-1" d="M151.27,115.43c-.26-.81-.5-1.58-.72-2.35-.14-.5-.25-1-.37-1.53s-.17-.78-.26-1.16a1.23,1.23,0,0,1,.36-1.35c.41-.39.8-.82,1.19-1.25.12-.12.23-.25.34-.37l.33,1c.56,1.68,1.11,3.34,1.65,5a.66.66,0,0,1,0,.49c-.54.63-1.1,1.24-1.73,1.92l-.48.53Z"/><path class="cls-1" d="M155,112c-.12-.33-.24-.66-.35-1-.28-.8-.57-1.63-.92-2.42-.86-2-.63-3.43.75-4.64a2.28,2.28,0,0,0,.36-.46l.32.79c.33.83.65,1.64,1,2.44a4.27,4.27,0,0,0,.48.79c.12.18.24.36.35.55a.76.76,0,0,1,.14.52c-.5.91-1,1.79-1.56,2.68l-.45.76Z"/><path class="cls-1" d="M159.4,103.12a11.68,11.68,0,0,0-1.47-4.28.74.74,0,0,1,0-.5q1-2.57,2.12-5.13l.14-.33A24.91,24.91,0,0,1,159.4,103.12Z"/><path class="cls-1" d="M157.92,107a1.59,1.59,0,0,0-.43-.86,4.1,4.1,0,0,1-.59-1.12,6.46,6.46,0,0,0-.44-.92c-.85-1.34-.81-2.35.11-3.36a4.17,4.17,0,0,0,.63-1c.05-.1.1-.2.16-.3.14.34.27.67.41,1,.37.91.73,1.76,1,2.64C159.26,104.52,158.62,105.73,157.92,107Z"/><path class="cls-1" d="M17.77,148.57c-.06-1.62-.13-3.24-.2-4.86l3.4.13c1.12,0,2.26.06,3.4.06s2.26,0,3.38-.06l3.38-.13a6,6,0,0,0,0,2.28l-2.22-.16-2.13-.15c-.75-.05-1.56-.09-2.45-.13s-1.95-.06-3.19-.06c0,.81-.06,1.58-.1,2.32s-.06,1.57-.06,2.51,0,2,0,2.89,0,1.64,0,2.12q1.68,0,3,0l2.44-.1,2-.11,1.77-.14a5.76,5.76,0,0,0-.12,1.18,5.52,5.52,0,0,0,.12,1.14c-.66-.08-1.43-.14-2.3-.19s-1.75-.08-2.62-.09l-2.47,0-1.85,0c0,.23,0,.47,0,.74s0,.6,0,1v3.76c0,1.44,0,2.63,0,3.57s0,1.65.06,2.13h2.66c1,0,1.91,0,2.83-.06s1.8-.09,2.62-.15a17.75,17.75,0,0,0,2.15-.28,2.52,2.52,0,0,0-.09.58c0,.22,0,.42,0,.59a3.38,3.38,0,0,0,.11,1c-1.14-.05-2.27-.07-3.4-.07H21c-1.14,0-2.29,0-3.45.07.07-1.62.14-3.24.2-4.84s.1-3.25.1-4.93v-6.53C17.87,151.84,17.84,150.19,17.77,148.57Z"/><path class="cls-1" d="M47.4,160q-4.93-5.3-9.88-10.55c0,.71-.05,1.66-.08,2.86s0,2.81,0,4.86c0,.53,0,1.19,0,2s0,1.61,0,2.48,0,1.73.06,2.62,0,1.71.07,2.47.06,1.42.08,2,0,1,.08,1.16a11,11,0,0,0-1.33-.07,12.31,12.31,0,0,0-1.41.07c.05-.25.11-.72.17-1.41s.12-1.5.17-2.45.11-2,.17-3.09.12-2.23.16-3.35.06-2.2.09-3.27,0-2,0-2.84q0-3.66,0-6.27c0-1.75,0-3.06-.1-3.92h.61c1.55,1.67,3.2,3.47,5,5.38s3.51,3.8,5.25,5.66,3.38,3.62,4.94,5.28,2.91,3.07,4.08,4.24V158.6q0-4-.06-7.77c0-2.52-.12-4.9-.24-7.12a5.74,5.74,0,0,0,1.29.19,5.63,5.63,0,0,0,1.21-.19c0,.55-.1,1.39-.17,2.5s-.12,2.31-.19,3.57-.12,2.51-.17,3.73-.07,2.19-.07,2.93v2.28c0,.86,0,1.76,0,2.69l0,2.83c0,.95,0,1.84,0,2.66s0,1.54,0,2.15v1.26h-.53Q52.35,165.26,47.4,160Z"/><path class="cls-1" d="M69,145.68l-2.07,0c-.73,0-1.45,0-2.17.08s-1.42.08-2.09.13-1.27.11-1.8.19a4.92,4.92,0,0,0,.19-1.22,5.52,5.52,0,0,0-.19-1.17l4.9.13c1.59,0,3.23.06,4.9.06s3.31,0,4.9-.06l4.9-.13a5.63,5.63,0,0,0-.19,1.21,4.85,4.85,0,0,0,.19,1.18c-.53-.08-1.13-.14-1.8-.19s-1.37-.1-2.09-.13-1.45-.07-2.17-.08l-2.07,0q-.11,3.91-.11,7.87v6.53c0,1.67,0,3.32.09,4.94s.14,3.22.21,4.79c-.58-.05-1.2-.07-1.86-.07s-1.28,0-1.86.07c.07-1.57.14-3.17.21-4.79s.09-3.27.09-4.94v-6.53Q69.14,149.59,69,145.68Z"/><path class="cls-1" d="M178.39,169.81a7.12,7.12,0,0,0-1-.07h-2a7.36,7.36,0,0,0-1,.07c-.17-.58-.41-1.28-.72-2.11s-.64-1.68-1-2.58l-1.12-2.74c-.38-.92-.74-1.8-1.07-2.64l-2.47-.06h-4.83l-2.31.06q-1.22,3-2.21,5.64c-.66,1.79-1.15,3.27-1.48,4.43a14.14,14.14,0,0,0-2.81,0q3.07-6.65,6-13.22t5.89-13.38H167l2,4.77q1.06,2.57,2.17,5.19c.73,1.75,1.47,3.48,2.2,5.2s1.43,3.33,2.07,4.81,1.23,2.81,1.75,4S178.06,169.2,178.39,169.81ZM161.56,158c.66,0,1.34,0,2.05,0s1.39,0,2,0l2.13,0,2.13-.06-4.22-9.65Z"/><path class="cls-1" d="M181.75,149.29q0-1.51-.06-3c0-1-.05-1.93-.09-2.83s-.08-1.67-.13-2.3a9.8,9.8,0,0,0,1.71.19,9.9,9.9,0,0,0,1.71-.19c0,.63-.1,1.4-.14,2.3s-.07,1.84-.09,2.83,0,2-.06,3,0,2,0,2.81V159c0,.86,0,1.8,0,2.81s0,2,.06,3,.06,1.93.09,2.82.09,1.62.14,2.2c-.59-.05-1.16-.07-1.71-.07s-1.13,0-1.71.07c.05-.58.09-1.32.13-2.2s.07-1.83.09-2.82.05-2,.06-3,0-1.95,0-2.81V152.1C181.77,151.24,181.76,150.3,181.75,149.29Z"/><path class="cls-1" d="M190.19,149.29c0-1,0-2-.05-3s-.06-1.93-.1-2.83-.08-1.67-.13-2.3a7.79,7.79,0,0,0,3.42,0c-.05.63-.1,1.4-.13,2.3s-.07,1.84-.1,2.83l-.06,3c0,1,0,2,0,2.81V159c0,.86,0,1.8,0,2.81s0,2,.06,3,.06,1.93.1,2.82.08,1.62.13,2.2c-.58-.05-1.15-.07-1.71-.07s-1.13,0-1.71.07c.05-.58.09-1.32.13-2.2s.07-1.83.1-2.82,0-2,.05-3,0-1.95,0-2.81V152.1C190.21,151.24,190.21,150.3,190.19,149.29Z"/><path class="cls-1" d="M196.84,161.37a11.1,11.1,0,0,1,2.22-7.33,8,8,0,0,1,6.48-2.66A8.79,8.79,0,0,1,209,152a7.29,7.29,0,0,1,2.45,1.67,6.61,6.61,0,0,1,1.46,2.45,9.25,9.25,0,0,1,.48,3c0,.26,0,.5,0,.74l-.06.74-4.07-.07c-1.34,0-2.69,0-4.06,0-.84,0-1.67,0-2.49,0l-2.49.07a2.83,2.83,0,0,0,0,.58v.49a8.6,8.6,0,0,0,.44,2.77,6.28,6.28,0,0,0,1.27,2.23,6.17,6.17,0,0,0,2.05,1.48,6.73,6.73,0,0,0,2.82.55,6.08,6.08,0,0,0,1.55-.21,8.84,8.84,0,0,0,1.56-.57,8.61,8.61,0,0,0,1.43-.86,7,7,0,0,0,1.16-1.06l.19.11-.23,1.87a10.52,10.52,0,0,1-2.83,1.55,9.6,9.6,0,0,1-3.52.65,10.63,10.63,0,0,1-3.74-.63,8.15,8.15,0,0,1-4.83-4.65A9.37,9.37,0,0,1,196.84,161.37Zm8.78-8.77a4.21,4.21,0,0,0-2.38.64,5.49,5.49,0,0,0-1.6,1.62,7.91,7.91,0,0,0-.95,2.13,11.55,11.55,0,0,0-.39,2.18l2.45.08,2.48,0,2.55,0,2.51-.08a15,15,0,0,0-.17-2.16,6.66,6.66,0,0,0-.69-2.13,4.49,4.49,0,0,0-1.42-1.64A4.07,4.07,0,0,0,205.62,152.6Z"/><path class="cls-1" d="M224.5,154.46a3.3,3.3,0,0,0-1.12-.19,3.19,3.19,0,0,0-1.63.42,3.83,3.83,0,0,0-1.22,1.12,5.35,5.35,0,0,0-.76,1.67,8.15,8.15,0,0,0-.26,2.07v4.18c0,1.7,0,3,0,3.9a17.43,17.43,0,0,0,.13,2.18c-.51-.05-1-.07-1.52-.07s-1.09,0-1.6.07c.08-.86.12-2,.14-3.51s0-3.3,0-5.46v-1.21c0-1,0-2.13,0-3.42s-.06-2.78-.14-4.45c.28.05.55.1.8.13a5.1,5.1,0,0,0,.8.06,4.56,4.56,0,0,0,.72-.06c.25,0,.52-.08.8-.13-.1.91-.16,1.64-.17,2.17s0,1,0,1.52l.08,0q2.23-4.11,5-4.11a3.34,3.34,0,0,1,.59,0,2.82,2.82,0,0,1,.63.19,4,4,0,0,0-.23,1.39c0,.62,0,1.18,0,1.69l-.26.19A1.8,1.8,0,0,0,224.5,154.46Z"/><path class="cls-1" d="M227.56,157.57a6.16,6.16,0,0,1,.57-2.75,5.34,5.34,0,0,1,1.57-1.92,7,7,0,0,1,2.32-1.14,10.16,10.16,0,0,1,2.79-.38c.48,0,.95,0,1.39,0l1.69.11,1.56.12c.46,0,.82,0,1.1,0a17,17,0,0,0,3.08-.2c0,.13,0,.27-.06.4s0,.28,0,.4,0,.26,0,.4,0,.27.06.4l-2.15-.17c-.69-.06-1.38-.11-2.07-.13l-.07.07a4.84,4.84,0,0,1,1.9,2,5.86,5.86,0,0,1,.72,2.79,5.53,5.53,0,0,1-1.92,4.47,7.78,7.78,0,0,1-5.15,1.61c-.36,0-.7,0-1,0s-.7,0-1,0a1.93,1.93,0,0,0-1.27.5,1.55,1.55,0,0,0-.59,1.25,2,2,0,0,0,.47,1.45,2.71,2.71,0,0,0,1.77.49l2.09.06,2.09,0a11.36,11.36,0,0,1,3,.42,5.89,5.89,0,0,1,2,1,3.92,3.92,0,0,1,1.14,1.48,4.58,4.58,0,0,1,.36,1.82,7.68,7.68,0,0,1-.51,2.7,7.05,7.05,0,0,1-1.6,2.47A8.35,8.35,0,0,1,239,179.2a10.57,10.57,0,0,1-4.11.72,10.15,10.15,0,0,1-5.81-1.46,4.84,4.84,0,0,1-1.77-5.84,5.62,5.62,0,0,1,.93-1.48,4.69,4.69,0,0,1,1.29-1,7.14,7.14,0,0,1,1.49-.57v-.07a3.32,3.32,0,0,1-1.79-1.14,3,3,0,0,1-.61-1.9,2.71,2.71,0,0,1,.25-1.18,3.57,3.57,0,0,1,.63-.95,3.32,3.32,0,0,1,1.82-1v-.08a6.38,6.38,0,0,1-2.74-2.15A5.82,5.82,0,0,1,227.56,157.57Zm13.49,16.27a3.6,3.6,0,0,0-1.33-3.19,8.06,8.06,0,0,0-4.41-.91,8.56,8.56,0,0,0-4.41.93,3.58,3.58,0,0,0-1.56,3.36,5.08,5.08,0,0,0,.44,2.2,4.05,4.05,0,0,0,1.18,1.49,4.86,4.86,0,0,0,1.76.83,8.69,8.69,0,0,0,2.21.27,8.08,8.08,0,0,0,2.24-.31,6.08,6.08,0,0,0,2-.91,4.65,4.65,0,0,0,1.38-1.54A4.35,4.35,0,0,0,241.05,173.84ZM239,157.38a5.23,5.23,0,0,0-1.14-3.64,3.85,3.85,0,0,0-3-1.26,3.91,3.91,0,0,0-3.19,1.39,5.66,5.66,0,0,0-1.14,3.7,6.16,6.16,0,0,0,1,3.79,4.43,4.43,0,0,0,5.12.95,3.87,3.87,0,0,0,1.3-1.18,5.54,5.54,0,0,0,.76-1.71A8.51,8.51,0,0,0,239,157.38Z"/><path class="cls-1" d="M253.05,169.85,252,167.19c-.45-1.09-.92-2.24-1.43-3.44s-1-2.43-1.56-3.69l-1.5-3.53c-.46-1.1-.88-2.07-1.23-2.91l-.8-1.86c.33.05.63.1.91.13a5.93,5.93,0,0,0,.84.06,5.69,5.69,0,0,0,.83-.06l.92-.13c.78,2.43,1.66,4.84,2.62,7.22s2,4.84,3,7.37q1.59-3.34,3.06-7.14c1-2.53,1.84-5,2.6-7.45a5.2,5.2,0,0,0,1.25.19,5.27,5.27,0,0,0,1.26-.19c-.18.36-.46,1-.86,1.81l-1.4,3c-.55,1.17-1.14,2.48-1.79,3.91s-1.3,2.9-2,4.41-1.34,3-2,4.48-1.27,2.89-1.82,4.22-1.05,2.53-1.47,3.61-.72,1.93-.93,2.57a5.28,5.28,0,0,0-1.29-.2,5.43,5.43,0,0,0-1.29.2A76.85,76.85,0,0,0,253.05,169.85Z"/></svg>