<svg id="Final_Artboards_text_outlines" data-name="Final Artboards text outlines" xmlns="http://www.w3.org/2000/svg" viewBox="0 0 277.57 198.43"><defs><style>.cls-1{fill:#fff;}.cls-2{fill:#231f20;}</style></defs><title>ENTA logo solid tragus</title><path class="cls-1" d="M121.87,174.29a8.26,8.26,0,0,1-1,.16,15.19,15.19,0,0,1-5.66-1C108.91,171.17,104,167,99.8,161.84a37,37,0,0,1-4.69-8c-.23-.5-.44-.7-1-.6-1.58.27-3.17.47-4.76.62-.57.06-.76.24-.78.81a53.44,53.44,0,0,0,.41,10,31.15,31.15,0,0,0,4.48,12.78c2.42,3.74,5.48,6.84,9.77,8.3,7.88,2.67,15.35,1.43,22.33-2.94a40.06,40.06,0,0,0,12-12.28c4.62-7,9.05-14.16,13.5-21.28a117.49,117.49,0,0,1,11.54-16.07c4.18-4.72,8.27-9.51,12.2-14.44A93.71,93.71,0,0,0,187.78,97a64.28,64.28,0,0,0,5.3-22.9,60.88,60.88,0,0,0-7-31.33A58.57,58.57,0,0,0,116.77,14,45.82,45.82,0,0,0,91.91,32a42.22,42.22,0,0,0-7.61,23.2,24.26,24.26,0,0,0,.79,7.73,44.63,44.63,0,0,0,3.63,8.29A63.71,63.71,0,0,0,99.41,85.24a97.3,97.3,0,0,0,16.24,13.14c2.88,1.91,5.78,3.81,8,6.53a14.62,14.62,0,0,1,3.55,11.41,25,25,0,0,1-.6,2.67s.07.05.09,0c.49-.18,1-.36,1.46-.56a64.81,64.81,0,0,0,13.67-7.11,1.24,1.24,0,0,0,.58-1.31,13,13,0,0,0-5.91-9.83c-2.36-1.59-4.87-2.94-7.37-4.32a122.86,122.86,0,0,1-14.85-9.05,50.46,50.46,0,0,1-14-15.14c-5.3-9.25-5.76-18.74-1.12-28.36A34.83,34.83,0,0,1,118,25.82,33.37,33.37,0,0,1,136.6,24a52.86,52.86,0,0,1,14.52,4.86,52.48,52.48,0,0,1,20.64,17.41c5.79,8.45,8.34,17.92,8.56,28.08a60.32,60.32,0,0,1-3.07,20,82.36,82.36,0,0,1-10.4,21,34.68,34.68,0,0,1-6.34,7.18,9.5,9.5,0,0,0-5.78,2.35c-1.18,0-2.35.2-3.51.34a6.22,6.22,0,0,0-3.51,2.09l14.81-.41c-.57.43-1.13.84-1.67,1.27a15.93,15.93,0,0,0-6.08,3c-3.43.88-6.9.69-10.37.49a3.57,3.57,0,0,0-2.64.51c-.73.56-1.54,1-2.49,1.61l17.84,1,.23.23a3.74,3.74,0,0,0-.66.34,16,16,0,0,0-5,2.69,27.64,27.64,0,0,0-17-.22,1.37,1.37,0,0,0-1.26.14c-1.06.66-2.14,1.28-3.21,1.93a3.54,3.54,0,0,0-.36.28c2.06.56,4.14,1,6.15,1.67a64.36,64.36,0,0,0,12.93,2.91,5.18,5.18,0,0,1,1.05.41,8,8,0,0,0-.92.75,15.53,15.53,0,0,0-6.61,2.08,34,34,0,0,0-18.57-3.74,1.59,1.59,0,0,0-1.54-.06c-1.86.81-3.73,1.59-5.59,2.39-.07,0-.11.11-.13.13.6.1,1.19.15,1.76.3a55.27,55.27,0,0,1,10,3.77,76.91,76.91,0,0,0,12.41,5.06,1.71,1.71,0,0,1,.7.41c.29.31.3.57-.19.79a19.84,19.84,0,0,0-7.69,1.78,32.51,32.51,0,0,0-11.93-2.32,44.17,44.17,0,0,0-11.47-6.28,1.34,1.34,0,0,0-1.31-.24c-1.85.51-3.73,1-5.59,1.42l-.8.2a33.18,33.18,0,0,0,6.38,6.06c3.49,4.35,6.84,8.81,10.25,13.22Zm33.28-53.78c1-.35,1.55-.73,2.77-2.17a68.57,68.57,0,0,0,12.32-21.48,67.46,67.46,0,0,0,4.2-20.49A44.8,44.8,0,0,0,171.32,58a41.78,41.78,0,0,0-15.86-19.75c-6.59-4.39-13.62-7.73-21.56-8.76a26.63,26.63,0,0,0-14.39,2,29.72,29.72,0,0,0-15.62,16,22.1,22.1,0,0,0,.62,19.83,43.41,43.41,0,0,0,11.25,13.51,98.72,98.72,0,0,0,14.49,9.45c3.5,2,7,4,10.36,6.2A15.19,15.19,0,0,1,147.1,106c.08.35.12.7.2,1.15l.64-.59a36.29,36.29,0,0,0,7.33-9.89,37.35,37.35,0,0,0,4.2-11.35,29.58,29.58,0,0,0-5.41-23c-4-5.58-9.25-9.44-16.34-10a14.58,14.58,0,0,0-13.5,5.84,10.68,10.68,0,0,0,2.16,15.36,7.78,7.78,0,0,0,11.19-2c1.81-3,.35-6.8-2.85-7.38a3.43,3.43,0,0,0-3.5,1.22,2.24,2.24,0,0,0,.12,2.84,1.56,1.56,0,0,0,2.32.32.55.55,0,0,0,.26,0,2.1,2.1,0,0,0,1.24-2.3,3.63,3.63,0,0,0-3.88-.52,5.18,5.18,0,0,0-1.37-6.78,8.47,8.47,0,0,0-4,3.34,5.18,5.18,0,0,0,1.37,6.78,3.63,3.63,0,0,0,3.88.52,2.1,2.1,0,0,0-1.24,2.3.55.55,0,0,0-.26,0,1.56,1.56,0,0,0-2.32-.32,2.24,2.24,0,0,0-.12-2.84,3.43,3.43,0,0,0,3.5-1.22c3.5.58,4.66,4.41,2.85,7.38a7.78,7.78,0,0,0-11.19,2,10.68,10.68,0,0,0-2.16-15.36,14.58,14.58,0,0,0,13.5-5.84c7.09.56,12.34,4.42,16.34,10a29.58,29.58,0,0,0,5.41,23,37.35,37.35,0,0,0-4.2,11.35,36.29,36.29,0,0,0-7.33,9.89l-.64.59c-.08-.45-.12-.8-.2-1.15a15.19,15.19,0,0,0-6.49-9.58c-3.34-2.24-6.86-4.21-10.36-6.2a98.72,98.72,0,0,0-14.49-9.45,43.41,43.41,0,0,0-11.25-13.51,22.1,22.1,0,0,0-.62-19.83,29.72,29.72,0,0,0,15.62-16,26.63,26.63,0,0,0,14.39-2c7.94,1,15,4.37,21.56,8.76A41.78,41.78,0,0,0,171.32,58a44.8,44.8,0,0,0,3.12,18.36,67.46,67.46,0,0,0-4.2,20.49,68.57,68.57,0,0,0-12.32,21.48C148.65,120.16,148.1,120.58,147.15,120.51Zm-33.28-6a22.11,22.11,0,0,0-.71-3,13.47,13.47,0,0,0-5.34-6.31c-3.47-2.36-7-4.67-10.38-7.12-5-4.21-12.35-11-16.4-15.94a38.43,38.43,0,0,0,1.25,11.64,13.37,13.37,0,0,0,5.89,8.11c.39.23,3.26,2.27,3.84,2.55,4.44,3.25,4.67,9.06,3.35,12.73a15.65,15.65,0,0,0-5.82,7.27,12.14,12.14,0,0,0-5.1,9.43c-.15,2.44.64,4.25,2.78,5.06a.77.77,0,0,0,1-.22c.63-.74,1.29-1.47,2-2.15,3.21-3.18,6.65-6,11-7.53a26.13,26.13,0,0,0,6.52-3.35,13.74,13.74,0,0,0,6.13-11.19A22.11,22.11,0,0,0,121.16,111.52Zm39.56-15.09-.21,0a24.51,24.51,0,0,0-.35,2.43,33.23,33.23,0,0,0-6.64,13.3,57.92,57.92,0,0,0-13,11.7,90.92,90.92,0,0,0-19.54,9.79,121,121,0,0,0-21.41,5.72c-2.8.48-5.65.73-8.47,1.12-.28,0-.69.21-.76.41-.77,2.24-1.49,4.5-2.25,6.84.37,0,.57,0,.76,0,2-.25,3.93-.42,5.87-.77a106.53,106.53,0,0,0,28.33-9.08,107.79,107.79,0,0,0,20.75-13.12,74.31,74.31,0,0,0,9.71-9.88,27.93,27.93,0,0,0,6.55-13C161.1,103,161.21,101.21,161.43,99.41Zm-58.85-3.59A102.23,102.23,0,0,1,89,82.15a38.43,38.43,0,0,0,1.25,11.64,13.37,13.37,0,0,0,5.89,8.11c.39.23.82.4,1.39.68C97.52,99,98.64,96.47,102.58,95.82Zm24.7,27.2c-1.82.56-3.68.52-4.48,2.45a.35.35,0,0,0-.1.11,26.22,26.22,0,0,0-14.86,8.84c-1.86.39-4.72,3-5.32,4.93.24-.06.45-.13.66-.17a108.82,108.82,0,0,0,14.92-3.61c.78-.24,1.48-.46,1.67-1.42a3.39,3.39,0,0,0,.64-1.09l5.2-7.61Zm-4.53,10.81.18.13,1-.39,7.63-3.14a2.33,2.33,0,0,0,1.56-1.63c.59-1.88,1.44-3.67,2.19-5.5l1.72-4.14-.48.18c-1.84.84-3.68,1.67-5.51,2.53a2,2,0,0,0-.78.67Q126.47,128.18,122.75,133.83Zm12.72-5.43c.27-.06.35-.06.4-.1,2.38-1.47,4.76-2.94,7.11-4.44a1.09,1.09,0,0,0,.39-.81c.08-2.42.11-4.84.15-7.27,0-.22,0-.45-.07-.78-1.13.81-2.16,1.52-3.13,2.29a2.89,2.89,0,0,0-.93,1.1c-1.11,2.64-2.18,5.31-3.24,8C135.9,127,135.72,127.63,135.47,128.4Zm13-17.74c-1,.88-1.94,1.66-2.81,2.51a1.8,1.8,0,0,0-.47,1.09c-.06,1.27,0,2.54,0,3.82s0,2.61,0,3.92l.26.11c1.46-1.33,2.94-2.66,4.38-4a.76.76,0,0,0,.2-.61C149.53,115.22,149,113,148.48,110.66Zm3,6c.9-1,1.67-1.8,2.39-2.64a.76.76,0,0,0,0-.63c-.66-2-1.35-4.1-2-6.19-.57.6-1.1,1.23-1.69,1.79a1.37,1.37,0,0,0-.4,1.48c.22.9.39,1.81.64,2.7C150.73,114.24,151.09,115.34,151.48,116.61Zm3.42-4.45.32,0c.69-1.18,1.4-2.34,2.06-3.53.08-.15,0-.47-.15-.66-.25-.46-.61-.86-.82-1.33-.5-1.13-.94-2.28-1.42-3.47a3.72,3.72,0,0,0-.5.65c-1.58,1.4-1.57,3-.78,4.81C154.11,109.81,154.48,111,154.9,112.16Zm4.42-8.44c1.33-3,1.52-9.3,1-11.17,0,0-.1,0-.11.08-.79,1.88-1.58,3.76-2.34,5.65a.79.79,0,0,0,0,.62A11.49,11.49,0,0,1,159.32,103.72Zm-1.53,3.84c.75-1.42,1.69-2.83,1.13-4.54-.42-1.29-1-2.53-1.54-3.92a8.81,8.81,0,0,0-.91,1.55c-1.07,1.17-.9,2.31-.13,3.54a15.19,15.19,0,0,0,1,2A1.56,1.56,0,0,1,157.79,107.56Z"/><path d="M121.87,174.29l-2.75-3.54c-3.41-4.41-6.76-8.87-10.25-13.22a33.18,33.18,0,0,0-6.38-6.06l.8-.2c1.86-.47,3.74-.91,5.59-1.42a1.34,1.34,0,0,1,1.31.24,44.17,44.17,0,0,0,11.47,6.28,32.51,32.51,0,0,0,11.93,2.32,19.84,19.84,0,0,0,7.69-1.78c.49-.22.48-.48.19-.79a1.71,1.71,0,0,0-.7-.41,76.91,76.91,0,0,1-12.41-5.06,55.27,55.27,0,0,0-10-3.77c-.57-.15-1.16-.2-1.76-.3,0,0,.06-.1.13-.13,1.86-.8,3.73-1.58,5.59-2.39a1.59,1.59,0,0,1,1.54.06,34,34,0,0,0,18.57,3.74,15.53,15.53,0,0,0,6.61-2.08,8,8,0,0,0,.92-.75,5.18,5.18,0,0,0-1.05-.41A64.36,64.36,0,0,1,136,141.71c-2-.64-4.09-1.11-6.15-1.67a3.54,3.54,0,0,1,.36-.28c1.07-.65,2.15-1.27,3.21-1.93a1.37,1.37,0,0,1,1.26-.14,27.64,27.64,0,0,0,17,.22,16,16,0,0,0,5-2.69,3.74,3.74,0,0,0,.66-.34l-.23-.23-17.84-1c.95-.61,1.76-1.05,2.49-1.61a3.57,3.57,0,0,1,2.64-.51c3.47.2,6.94.39,10.37-.49a15.93,15.93,0,0,0,6.08-3c.54-.43,1.1-.84,1.67-1.27l-14.81.41a6.22,6.22,0,0,1,3.51-2.09c1.16-.14,2.33-.29,3.51-.34a9.5,9.5,0,0,0,5.78-2.35,34.68,34.68,0,0,0,6.34-7.18,82.36,82.36,0,0,0,10.4-21,60.32,60.32,0,0,0,3.07-20c-.22-10.16-2.77-19.63-8.56-28.08a52.48,52.48,0,0,0-20.64-17.41A52.86,52.86,0,0,0,136.6,24,33.37,33.37,0,0,0,118,25.82,34.83,34.83,0,0,0,99.11,43.35c-4.64,9.62-4.18,19.11,1.12,28.36a50.46,50.46,0,0,0,14,15.14,122.86,122.86,0,0,0,14.85,9.05c2.5,1.38,5,2.73,7.37,4.32a13,13,0,0,1,5.91,9.83,1.24,1.24,0,0,1-.58,1.31,64.81,64.81,0,0,1-13.67,7.11c-.48.2-1,.38-1.46.56,0,0,0,0-.09,0a25,25,0,0,0,.6-2.67,14.62,14.62,0,0,0-3.55-11.41c-2.21-2.72-5.11-4.62-8-6.53A97.3,97.3,0,0,1,99.41,85.24,63.71,63.71,0,0,1,88.72,71.18a44.63,44.63,0,0,1-3.63-8.29,24.26,24.26,0,0,1-.79-7.73A42.22,42.22,0,0,1,91.91,32a45.82,45.82,0,0,1,24.86-18,58.49,58.49,0,0,1,69.3,28.85,60.88,60.88,0,0,1,7,31.33,64.28,64.28,0,0,1-5.3,22.9,93.71,93.71,0,0,1-13.06,21.65c-3.93,4.93-8,9.72-12.2,14.44A117.49,117.49,0,0,0,151,149.2c-4.45,7.12-8.88,14.27-13.5,21.28a40.06,40.06,0,0,1-12,12.28c-7,4.37-14.45,5.61-22.33,2.94-4.29-1.46-7.35-4.56-9.77-8.3a31.15,31.15,0,0,1-4.48-12.78,53.44,53.44,0,0,1-.41-10c0-.57.21-.75.78-.81,1.59-.15,3.18-.35,4.76-.62.61-.1.82.1,1,.6a37,37,0,0,0,4.69,8c4.18,5.15,9.11,9.33,15.45,11.61a15.19,15.19,0,0,0,5.66,1A8.26,8.26,0,0,0,121.87,174.29Z"/><path d="M155.15,120.51a49.67,49.67,0,0,0,7.61-11.9,47.66,47.66,0,0,0,3.45-12.39,66.91,66.91,0,0,0-.13-21.37,41.17,41.17,0,0,0-10.34-21.76,26.48,26.48,0,0,0-17.39-8.51,23.4,23.4,0,0,0-18.33,6,16.87,16.87,0,0,0-5.37,9.82,18.9,18.9,0,0,0,1,11.55,16.58,16.58,0,0,0,10.09,9.47c5.73,1.94,13.6.42,17.22-6.14,3.14-5.7,1.53-12.19-4.24-15.08a7.88,7.88,0,0,0-7.3,0,8.47,8.47,0,0,0-4,3.34,5.18,5.18,0,0,0,1.37,6.78,3.63,3.63,0,0,0,3.88.52,2.1,2.1,0,0,0,1.24-2.3.55.55,0,0,0-.26,0,1.56,1.56,0,0,0-2.32-.32,2.24,2.24,0,0,0-.12-2.84,3.43,3.43,0,0,0,3.5-1.22c3.5.58,4.66,4.41,2.85,7.38a7.78,7.78,0,0,0-11.19,2,10.68,10.68,0,0,0-2.16-15.36,14.58,14.58,0,0,0,13.5-5.84c7.09.56,12.34,4.42,16.34,10a29.58,29.58,0,0,0,5.41,23,37.35,37.35,0,0,0-4.2,11.35,36.29,36.29,0,0,0-7.33,9.89l-.64.59c-.08-.45-.12-.8-.2-1.15a15.19,15.19,0,0,0-6.49-9.58c-3.34-2.24-6.86-4.21-10.36-6.2a98.72,98.72,0,0,0-14.49-9.45,43.41,43.41,0,0,0-11.25-13.51,22.1,22.1,0,0,0-.62-19.83,29.72,29.72,0,0,0,15.62-16,26.63,26.63,0,0,0,14.39-2c7.94,1,15,4.37,21.56,8.76A41.78,41.78,0,0,0,171.32,58a44.8,44.8,0,0,0,3.12,18.36,67.46,67.46,0,0,0-4.2,20.49,68.57,68.57,0,0,0-12.32,21.48C156.7,119.78,156.2,120.16,155.15,120.51Z"/><path d="M161.43,99.41c-.22,1.8-.33,3.62-.66,5.39a27.93,27.93,0,0,1-6.55,13,74.31,74.31,0,0,1-9.71,9.88,107.79,107.79,0,0,1-20.75,13.12,106.53,106.53,0,0,1-28.33,9.08c-1.94.35-3.91.52-5.87.77-.19,0-.39,0-.76,0,.76-2.34,1.48-4.6,2.25-6.84.07-.2.48-.37.76-.41,2.82-.39,5.67-.64,8.47-1.12a121,121,0,0,0,21.41-5.72,90.92,90.92,0,0,0,19.54-9.79,57.92,57.92,0,0,0,13-11.7,33.23,33.23,0,0,0,6.64-13.3,24.51,24.51,0,0,0,.35-2.43Z"/><path d="M121.16,111.52a22.11,22.11,0,0,0-.71-3,13.47,13.47,0,0,0-5.34-6.31c-3.47-2.36-7-4.67-10.38-7.12-5-4.21-12.35-11-16.4-15.94a38.43,38.43,0,0,0,1.25,11.64,13.37,13.37,0,0,0,5.89,8.11c.39.23,3.26,2.27,3.84,2.55,4.44,3.25,4.67,9.06,3.35,12.73a15.65,15.65,0,0,0-5.82,7.27,12.14,12.14,0,0,0-5.1,9.43c-.15,2.44.64,4.25,2.78,5.06a.77.77,0,0,0,1-.22c.63-.74,1.29-1.47,2-2.15,3.21-3.18,6.65-6,11-7.53a26.13,26.13,0,0,0,6.52-3.35,13.74,13.74,0,0,0,6.13-11.19Z"/><path d="M127.28,123l-1.67,2.43-5.2,7.61a3.39,3.39,0,0,0-.64,1.09c-.19,1-.89,1.18-1.67,1.42a108.82,108.82,0,0,0-14.92,3.61c-.21,0-.42.11-.66.17.6-1.9,3.46-4.54,5.32-4.93a26.22,26.22,0,0,0,14.86-8.84.35.35,0,0,0,.1-.11C123.6,123.54,125.46,123.58,127.28,123Z"/><path d="M122.75,133.83q3.73-5.64,7.47-11.29a2,2,0,0,0,.78-.67c1.83-.86,3.67-1.69,5.51-2.53l.48-.18-1.72,4.14c-.75,1.83-1.6,3.62-2.19,5.5a2.33,2.33,0,0,0-1.56,1.63l-7.63,3.14-1,.39Z"/><path d="M135.47,128.4c.25-.77.43-1.42.68-2,1.06-2.67,2.13-5.34,3.24-8a2.89,2.89,0,0,0,.93-1.1c1-.77,2-1.48,3.13-2.29,0,.33.07.56.07.78,0,2.43-.07,4.85-.15,7.27a1.09,1.09,0,0,0-.39.81c-2.35,1.5-4.73,3-7.11,4.44C135.82,128.34,135.74,128.34,135.47,128.4Z"/><path d="M148.48,110.66c.53,2.31,1.05,4.56,1.54,6.82a.76.76,0,0,0-.2.61c-1.44,1.36-2.92,2.69-4.38,4l-.26-.11c0-1.31,0-2.62,0-3.92s0-2.55,0-3.82a1.8,1.8,0,0,0,.47-1.09C146.54,112.32,147.49,111.54,148.48,110.66Z"/><path d="M151.48,116.61c-.39-1.27-.75-2.37-1.06-3.49-.25-.89-.42-1.8-.64-2.7a1.37,1.37,0,0,0,.4-1.48c.59-.56,1.12-1.19,1.69-1.79.7,2.09,1.39,4.14,2,6.19a.76.76,0,0,0,0,.63C153.15,114.81,152.38,115.63,151.48,116.61Z"/><path d="M154.9,112.16c-.42-1.16-.79-2.35-1.29-3.48-.79-1.8-.8-3.41.78-4.81a3.72,3.72,0,0,0,.5-.65c.48,1.19.92,2.34,1.42,3.47.21.47.57.87.82,1.33.11.19.23.51.15.66-.66,1.19-1.37,2.35-2.06,3.53Z"/><path d="M159.32,103.72a11.49,11.49,0,0,0-1.51-4.82.79.79,0,0,0,0-.62c.76-1.89,1.55-3.77,2.34-5.65,0,0,.07,0,.11-.08C160.84,94.42,160.65,100.7,159.32,103.72Z"/><path d="M157.79,107.56a1.56,1.56,0,0,0-.4-1.32,15.19,15.19,0,0,0-1-2c-.77-1.23-.94-2.37.13-3.54a8.81,8.81,0,0,0,.91-1.55c.55,1.39,1.12,2.63,1.54,3.92C159.48,104.73,158.54,106.14,157.79,107.56Z"/><path class="cls-2" d="M17.77,148.57q-.09-2.43-.21-4.86l3.41.13c1.12,0,2.26.06,3.4.06s2.26,0,3.38-.06l3.38-.13a5.48,5.48,0,0,0-.11,1.13,5.54,5.54,0,0,0,.11,1.15l-2.22-.16-2.13-.15c-.75-.05-1.57-.09-2.45-.13s-1.95-.06-3.19-.06c0,.81-.06,1.58-.1,2.32s-.06,1.57-.06,2.51,0,2,0,2.89,0,1.64,0,2.12q1.68,0,3,0l2.44-.1,2-.11,1.77-.14a5.76,5.76,0,0,0-.12,1.18,5.52,5.52,0,0,0,.12,1.14c-.66-.08-1.43-.14-2.3-.19s-1.75-.08-2.62-.09l-2.47,0-1.85,0c0,.23,0,.47,0,.74s0,.6,0,1v3.76c0,1.44,0,2.63,0,3.57s0,1.65.06,2.13h2.66c1,0,1.91,0,2.83-.06s1.8-.09,2.62-.15a17.75,17.75,0,0,0,2.15-.28,2.52,2.52,0,0,0-.09.58c0,.22,0,.42,0,.59a3.38,3.38,0,0,0,.11,1c-1.14-.05-2.27-.07-3.4-.07H21c-1.14,0-2.29,0-3.46.07.08-1.62.15-3.24.21-4.84s.1-3.25.1-4.93v-6.53C17.87,151.84,17.84,150.19,17.77,148.57Z"/><path class="cls-2" d="M47.4,160q-4.95-5.3-9.88-10.55c0,.71-.05,1.66-.08,2.86s0,2.81,0,4.86c0,.53,0,1.19,0,2s0,1.61,0,2.48,0,1.73.06,2.62,0,1.71.07,2.47.06,1.42.08,2,0,1,.08,1.16a11,11,0,0,0-1.33-.07,12.31,12.31,0,0,0-1.41.07c.05-.25.11-.72.17-1.41s.12-1.5.17-2.45.11-2,.17-3.09.12-2.23.16-3.35.06-2.2.09-3.27,0-2,0-2.84q0-3.66,0-6.27c0-1.75,0-3.06-.1-3.92h.61c1.55,1.67,3.2,3.47,5,5.38s3.51,3.8,5.25,5.66,3.38,3.62,4.94,5.28,2.91,3.07,4.08,4.24V158.6q0-4-.06-7.77c0-2.52-.12-4.9-.24-7.12a5.74,5.74,0,0,0,1.29.19,5.63,5.63,0,0,0,1.21-.19c0,.55-.1,1.39-.17,2.5s-.12,2.31-.19,3.57-.12,2.51-.17,3.73-.07,2.19-.07,2.93v2.28c0,.86,0,1.76,0,2.69l0,2.83c0,.95,0,1.84,0,2.66s0,1.54,0,2.15v1.26h-.53Q52.33,165.26,47.4,160Z"/><path class="cls-2" d="M69,145.68l-2.07,0c-.73,0-1.45,0-2.17.08s-1.42.08-2.09.13-1.27.11-1.8.19a4.92,4.92,0,0,0,.19-1.22,5.52,5.52,0,0,0-.19-1.17l4.9.13c1.59,0,3.23.06,4.9.06s3.31,0,4.9-.06l4.9-.13a5.63,5.63,0,0,0-.19,1.21,4.85,4.85,0,0,0,.19,1.18c-.53-.08-1.13-.14-1.8-.19s-1.37-.1-2.09-.13-1.45-.07-2.17-.08l-2.07,0q-.11,3.91-.11,7.87v6.53c0,1.67,0,3.32.09,4.94s.14,3.22.21,4.79c-.58-.05-1.2-.07-1.86-.07s-1.28,0-1.86.07c.07-1.57.14-3.17.21-4.79s.09-3.27.09-4.94v-6.53Q69.14,149.59,69,145.68Z"/><path class="cls-2" d="M178.39,169.81a7.12,7.12,0,0,0-1-.07h-2a7.25,7.25,0,0,0-1,.07c-.17-.58-.41-1.28-.72-2.11s-.64-1.68-1-2.58l-1.13-2.74c-.38-.92-.73-1.8-1.06-2.64l-2.47-.06h-4.83l-2.31.06q-1.22,3-2.21,5.64c-.66,1.79-1.15,3.27-1.48,4.43a14.14,14.14,0,0,0-2.81,0q3.07-6.65,6-13.22t5.89-13.38H167l2,4.77q1.06,2.57,2.17,5.19c.73,1.75,1.47,3.48,2.2,5.2s1.43,3.33,2.07,4.81,1.23,2.81,1.75,4S178.06,169.2,178.39,169.81ZM161.56,158c.66,0,1.34,0,2.05,0s1.39,0,2,0l2.13,0,2.13-.06-4.22-9.65Z"/><path class="cls-2" d="M181.75,149.29q0-1.51-.06-3c0-1-.05-1.93-.09-2.83s-.08-1.67-.13-2.3a9.7,9.7,0,0,0,1.71.19,9.9,9.9,0,0,0,1.71-.19c-.06.63-.1,1.4-.14,2.3s-.07,1.84-.09,2.83,0,2-.06,3,0,2,0,2.81V159c0,.86,0,1.8,0,2.81s0,2,.06,3,.05,1.93.09,2.82.08,1.62.14,2.2c-.59-.05-1.16-.07-1.71-.07s-1.13,0-1.71.07c.05-.58.09-1.32.13-2.2s.07-1.83.09-2.82.05-2,.06-3,0-1.95,0-2.81V152.1C181.77,151.24,181.76,150.3,181.75,149.29Z"/><path class="cls-2" d="M190.19,149.29c0-1,0-2-.05-3s-.06-1.93-.1-2.83-.08-1.67-.13-2.3a7.79,7.79,0,0,0,3.42,0c-.05.63-.1,1.4-.13,2.3s-.07,1.84-.1,2.83l-.06,3c0,1,0,2,0,2.81V159c0,.86,0,1.8,0,2.81s0,2,.06,3,.06,1.93.1,2.82.08,1.62.13,2.2c-.58-.05-1.15-.07-1.71-.07s-1.13,0-1.71.07c.05-.58.09-1.32.13-2.2s.07-1.83.1-2.82,0-2,.05-3,0-1.95,0-2.81V152.1C190.21,151.24,190.21,150.3,190.19,149.29Z"/><path class="cls-2" d="M196.84,161.37a11.1,11.1,0,0,1,2.22-7.33,8,8,0,0,1,6.48-2.66A8.79,8.79,0,0,1,209,152a7.29,7.29,0,0,1,2.45,1.67,6.61,6.61,0,0,1,1.46,2.45,9.25,9.25,0,0,1,.48,3c0,.26,0,.5,0,.74l-.06.74-4.07-.07c-1.34,0-2.7,0-4.06,0-.84,0-1.67,0-2.49,0l-2.49.07a2.83,2.83,0,0,0,0,.58v.49a8.6,8.6,0,0,0,.44,2.77,6.28,6.28,0,0,0,1.27,2.23,6.17,6.17,0,0,0,2.05,1.48,6.71,6.71,0,0,0,2.81.55,6.09,6.09,0,0,0,1.56-.21,9.14,9.14,0,0,0,1.56-.57,8.61,8.61,0,0,0,1.43-.86,7,7,0,0,0,1.16-1.06l.18.11-.22,1.87a10.52,10.52,0,0,1-2.83,1.55,9.6,9.6,0,0,1-3.52.65,10.63,10.63,0,0,1-3.74-.63,8.11,8.11,0,0,1-2.93-1.82,8.21,8.21,0,0,1-1.9-2.83A9.37,9.37,0,0,1,196.84,161.37Zm8.78-8.77a4.21,4.21,0,0,0-2.38.64,5.49,5.49,0,0,0-1.6,1.62,7.91,7.91,0,0,0-.95,2.13,12.48,12.48,0,0,0-.4,2.18l2.46.08,2.48,0,2.55,0,2.51-.08a15,15,0,0,0-.17-2.16,6.66,6.66,0,0,0-.69-2.13,4.49,4.49,0,0,0-1.42-1.64A4.07,4.07,0,0,0,205.62,152.6Z"/><path class="cls-2" d="M224.5,154.46a3.3,3.3,0,0,0-1.12-.19,3.19,3.19,0,0,0-1.63.42,3.83,3.83,0,0,0-1.22,1.12,5.35,5.35,0,0,0-.76,1.67,8.15,8.15,0,0,0-.26,2.07v4.18c0,1.7,0,3,0,3.9a17.43,17.43,0,0,0,.13,2.18c-.51-.05-1-.07-1.52-.07s-1.09,0-1.6.07c.08-.86.12-2,.14-3.51s0-3.3,0-5.46v-1.21c0-1,0-2.13,0-3.42s-.06-2.78-.14-4.45c.28.05.55.1.8.13a5.1,5.1,0,0,0,.8.06,4.56,4.56,0,0,0,.72-.06c.25,0,.52-.08.8-.13-.1.91-.16,1.64-.17,2.17s0,1,0,1.52l.07,0q2.25-4.11,5-4.11a3.34,3.34,0,0,1,.59,0,3,3,0,0,1,.63.19,4,4,0,0,0-.23,1.39c0,.62,0,1.18,0,1.69l-.26.19A1.8,1.8,0,0,0,224.5,154.46Z"/><path class="cls-2" d="M227.56,157.57a6.16,6.16,0,0,1,.57-2.75,5.24,5.24,0,0,1,1.57-1.92,7,7,0,0,1,2.32-1.14,10.11,10.11,0,0,1,2.79-.38c.48,0,.95,0,1.39,0l1.69.11,1.56.12c.46,0,.82,0,1.1,0a17,17,0,0,0,3.08-.2,2.76,2.76,0,0,0-.06.4c0,.14,0,.28,0,.4s0,.26,0,.4a2.57,2.57,0,0,0,.06.4l-2.15-.17c-.69-.06-1.38-.11-2.07-.13l-.08.07a4.8,4.8,0,0,1,1.91,2,5.86,5.86,0,0,1,.72,2.79,5.53,5.53,0,0,1-1.92,4.47,7.78,7.78,0,0,1-5.15,1.61c-.36,0-.7,0-1,0s-.69,0-1,0a1.93,1.93,0,0,0-1.27.5,1.55,1.55,0,0,0-.59,1.25,1.93,1.93,0,0,0,.47,1.45,2.71,2.71,0,0,0,1.77.49l2.09.06,2.09,0a11.36,11.36,0,0,1,3,.42,5.89,5.89,0,0,1,2,1,4,4,0,0,1,1.14,1.48,4.58,4.58,0,0,1,.36,1.82,7.47,7.47,0,0,1-.52,2.7,6.89,6.89,0,0,1-1.59,2.47A8.35,8.35,0,0,1,239,179.2a10.57,10.57,0,0,1-4.11.72,10.15,10.15,0,0,1-5.81-1.46,4.84,4.84,0,0,1-1.77-5.84,5.62,5.62,0,0,1,.93-1.48,4.69,4.69,0,0,1,1.29-1,6.93,6.93,0,0,1,1.49-.57v-.07a3.32,3.32,0,0,1-1.79-1.14,3,3,0,0,1-.61-1.9,2.71,2.71,0,0,1,.25-1.18,3.57,3.57,0,0,1,.63-.95,3.32,3.32,0,0,1,1.82-1v-.08a6.38,6.38,0,0,1-2.74-2.15A5.82,5.82,0,0,1,227.56,157.57Zm13.49,16.27a3.57,3.57,0,0,0-1.33-3.19,8,8,0,0,0-4.4-.91,8.56,8.56,0,0,0-4.41.93,3.58,3.58,0,0,0-1.56,3.36,5.08,5.08,0,0,0,.44,2.2,4.05,4.05,0,0,0,1.18,1.49,4.86,4.86,0,0,0,1.76.83,8.69,8.69,0,0,0,2.21.27,8.13,8.13,0,0,0,2.24-.31,6.08,6.08,0,0,0,2-.91,4.65,4.65,0,0,0,1.38-1.54A4.34,4.34,0,0,0,241,173.84Zm-2-16.46a5.23,5.23,0,0,0-1.14-3.64,3.85,3.85,0,0,0-3-1.26,3.91,3.91,0,0,0-3.19,1.39,5.66,5.66,0,0,0-1.14,3.7,6.22,6.22,0,0,0,1,3.79,4.45,4.45,0,0,0,5.13.95,4,4,0,0,0,1.3-1.18,5.54,5.54,0,0,0,.76-1.71A8.51,8.51,0,0,0,239,157.38Z"/><path class="cls-2" d="M253.05,169.85,252,167.19c-.45-1.09-.92-2.24-1.43-3.44s-1-2.43-1.56-3.69l-1.5-3.53q-.71-1.65-1.23-2.91l-.8-1.86c.33.05.63.1.91.13a5.93,5.93,0,0,0,.84.06,5.79,5.79,0,0,0,.83-.06l.92-.13c.78,2.43,1.66,4.84,2.62,7.22s2,4.84,3,7.37q1.59-3.34,3.06-7.14c1-2.53,1.84-5,2.6-7.45a5.2,5.2,0,0,0,1.25.19,5.27,5.27,0,0,0,1.26-.19c-.18.36-.46,1-.86,1.81l-1.4,3c-.55,1.17-1.14,2.48-1.79,3.91s-1.3,2.9-2,4.41l-2,4.48q-1,2.22-1.82,4.22c-.56,1.33-1.05,2.53-1.47,3.61s-.72,1.93-.93,2.57a4.26,4.26,0,0,0-2.58,0A76.85,76.85,0,0,0,253.05,169.85Z"/></svg>